<?xml version="1.0" encoding="UTF-8" standalone="no"?>
<!-- Uploaded to: SVG Repo, www.svgrepo.com, Generator: SVG Repo Mixer Tools -->

<svg
   height="800px"
   width="800px"
   version="1.1"
   id="Layer_1"
   viewBox="0 0 461.001 461.001"
   xml:space="preserve"
   sodipodi:docname="youtube-mark.svg"
   inkscape:version="1.3.2 (091e20e, 2023-11-25, custom)"
   xmlns:inkscape="http://www.inkscape.org/namespaces/inkscape"
   xmlns:sodipodi="http://sodipodi.sourceforge.net/DTD/sodipodi-0.dtd"
   xmlns="http://www.w3.org/2000/svg"
   xmlns:svg="http://www.w3.org/2000/svg"><defs
   id="defs1" /><sodipodi:namedview
   id="namedview1"
   pagecolor="#ffffff"
   bordercolor="#000000"
   borderopacity="0.25"
   inkscape:showpageshadow="2"
   inkscape:pageopacity="0.0"
   inkscape:pagecheckerboard="0"
   inkscape:deskcolor="#d1d1d1"
   inkscape:zoom="0.65875"
   inkscape:cx="400"
   inkscape:cy="400"
   inkscape:window-width="1535"
   inkscape:window-height="877"
   inkscape:window-x="57"
   inkscape:window-y="-8"
   inkscape:window-maximized="1"
   inkscape:current-layer="Layer_1" />

<g
   id="g2">
	
<path
   style="fill:#ffffff;stroke-width:0.514152"
   d="M 300.81935,147.87135 H 160.18164 c -27.59288,0 -49.96129,21.71569 -49.96129,48.50341 v 68.25248 c 0,26.78772 22.36841,48.5034 49.96129,48.5034 h 140.63771 c 27.59289,0 49.9613,-21.71568 49.9613,-48.5034 v -68.25248 c 0,-26.78772 -22.36841,-48.50341 -49.9613,-48.50341 z"
   id="path3"
   sodipodi:nodetypes="sssssssss" /><path
   style="fill:#f61c0d"
   d="M 365.257,67.393 H 95.744 C 42.866,67.393 0,110.259 0,163.137 v 134.728 c 0,52.878 42.866,95.744 95.744,95.744 h 269.513 c 52.878,0 95.744,-42.866 95.744,-95.744 V 163.137 c 0,-52.878 -42.866,-95.744 -95.744,-95.744 z m -64.751,169.663 -126.06,60.123 c -3.359,1.602 -7.239,-0.847 -7.239,-4.568 V 168.607 c 0,-3.774 3.982,-6.22 7.348,-4.514 15.83303,6.10739 135.48694,66.99093 125.951,72.963 z"
   id="path2"
   sodipodi:nodetypes="sssssssssccsscc" /></g></svg>
