<?xml version="1.0" encoding="UTF-8" standalone="no"?>
<svg
   version="1.1"
   width="841.88977pt"
   height="595.27557pt"
   id="svg378"
   viewBox="0 0 841.88977 595.27557"
   sodipodi:docname="brasao-corumba-ms-seeklogo.cdr"
   xmlns:inkscape="http://www.inkscape.org/namespaces/inkscape"
   xmlns:sodipodi="http://sodipodi.sourceforge.net/DTD/sodipodi-0.dtd"
   xmlns="http://www.w3.org/2000/svg"
   xmlns:svg="http://www.w3.org/2000/svg">
  <defs
     id="defs382" />
  <sodipodi:namedview
     id="namedview380"
     pagecolor="#ffffff"
     bordercolor="#000000"
     borderopacity="0.25"
     inkscape:showpageshadow="2"
     inkscape:pageopacity="0.0"
     inkscape:pagecheckerboard="0"
     inkscape:deskcolor="#d1d1d1"
     inkscape:document-units="pt" />
  <g
     id="Layer1000">
    <path
       d="m 208.7446,183.3088 c 0,0 -14.6591,-1.276 -20.1968,-22.6621 -5.5377,-21.3861 -63.6171,-22.7067 -66.8748,-22.7067 -3.2578,0 53.8557,-16.5858 71.4465,-5.7333 17.5909,10.8526 12.6927,17.7018 40.0561,13.8718 22.9419,11.3335 13.682,31.485 3.9095,37.8689 -9.7725,6.384 -28.3405,-0.6386 -28.3405,-0.6386 z"
       style="fill:#9c9e9f;fill-rule:evenodd;stroke:#1b1918;stroke-width:3.1012;stroke-linecap:butt;stroke-linejoin:miter;stroke-dasharray:none"
       id="path2" />
    <path
       d="m 704.1542,468.4101 -50.115,-285.4233 h -40.7189 l -15.6608,323.787 96.315,-19.1819 z"
       style="fill:#1b1918;fill-rule:evenodd"
       id="path4" />
    <path
       d="m 613.7485,226.2814 0.4756,-10.935 h 6.9041 v 10.935 z m -0.6623,15.2141 0.4756,-10.9351 h 22.2107 v 10.9351 z m -0.6623,15.2128 0.4763,-10.9344 h 8.228 v 10.9344 z m -0.6641,15.2538 0.4762,-10.9351 h 23.5131 v 10.9351 z m -0.6616,15.2128 0.4756,-10.9344 h 9.531 v 10.9344 z m -0.6623,15.214 0.4756,-10.935 h 24.8376 v 10.935 z m -0.6622,15.2129 0.4762,-10.9345 h 10.8549 v 10.9345 z m -0.6623,15.214 0.4762,-10.935 h 26.1615 v 10.935 z m -0.6616,15.2134 0.4756,-10.935 h 12.1794 v 10.935 z m -1.3246,30.4269 0.4756,-10.9344 h 13.504 v 10.9344 z m -1.3245,30.4269 0.4762,-10.9351 h 14.8279 v 10.9351 z m -1.3239,30.4268 0.4756,-10.935 h 16.1524 v 10.935 z m -1.3245,30.4269 0.4762,-10.935 h 17.4763 v 10.935 z m -0.6617,15.214 0.4756,-10.935 h 1.8353 v 10.935 z m -0.6622,15.2129 0.4756,-10.9344 h 18.8008 v 9.06 l -9.9432,1.8744 z m 50.2234,-7.7058 -26.9537,5.079 v -8.3076 h 26.9537 z m 17.1356,-3.2286 -12.8035,2.4124 v -2.4124 z m 26.7388,-15.2135 -4.6802,10.935 h -20.9842 v -10.935 z m 1.8315,-4.279 2.3761,-5.5509 -0.9315,-5.3841 h -12.6384 v 10.935 z m -1.1871,-26.1478 0.645,3.7258 v 7.2086 h -26.9538 v -10.9344 z m -2.6318,-15.2141 1.8919,10.935 h -9.2668 v -10.935 z m -2.6312,-15.2128 1.8913,10.9344 H 670.2618 V 413.162 Z m -2.6318,-15.2141 1.8913,10.9351 h -4.0032 v -10.9351 z m -2.6318,-15.2134 1.8919,10.935 h -17.6741 v -10.935 z m -5.263,-30.4269 1.8913,10.9351 h -12.4105 v -10.9351 z m -2.6318,-15.2134 1.8919,10.935 h -23.6572 v -10.935 z m -2.6312,-15.2134 1.8913,10.935 h -7.1475 v -10.935 z m -2.6318,-15.2135 1.8913,10.9345 h -18.3936 v -10.9345 z m -2.6244,-15.1737 1.8846,10.8953 h -1.8846 z m -2.6385,-15.2531 1.8913,10.9344 h -13.1307 v -10.9344 z m -2.6312,-15.2135 1.8913,10.9351 H 640.0812 V 261.027 Z m -2.6386,-15.2531 1.8913,10.9344 h -7.8375 v -10.9344 z m -2.6318,-15.2135 1.8919,10.9351 h -21.509 v -10.9351 z m -2.6312,-15.214 1.8913,10.935 h -2.5745 v -10.935 z m 9.945,106.5344 h -26.9543 v 10.935 h 26.9543 z m 0,60.8537 h -26.9543 v 10.935 h 26.9543 z m -31.2864,0 h -26.9543 v 10.935 h 26.9543 z m 31.2864,-91.2806 h -26.9543 v 10.935 h 26.9543 z m 0,60.8537 h -26.9543 v 10.9351 h 26.9543 z m -31.2864,0 h -26.9543 v 10.9351 h 26.9543 z m 31.2864,60.8544 h -26.9543 v 10.9344 h 26.9543 z m -31.2864,0 h -26.9543 v 10.9344 h 26.9543 z m 16.3027,-136.9215 h -26.9537 v 10.9344 h 26.9537 z m 0,60.8537 h -26.9537 v 10.935 h 26.9537 z m 31.2858,60.8537 h -26.9537 v 10.9351 h 26.9537 z m -31.2858,0 h -26.9537 v 10.9351 h 26.9537 z m 0,-91.2806 h -26.9537 v 10.9345 h 26.9537 z m 31.2858,60.8544 h -26.9537 v 10.9344 h 26.9537 z m -31.2858,0 h -26.9537 v 10.9344 h 26.9537 z m 14.9837,76.0672 h -26.9543 v 10.9344 h 26.9543 z m -31.2864,0 h -26.9543 v 10.9344 h 26.9543 z m 31.2864,30.4268 h -26.9543 v 10.935 h 26.9543 z m -31.2864,0 h -26.9543 v 10.935 h 26.9543 z m 47.5885,-15.214 h -26.9537 v 10.935 h 26.9537 z m -31.2858,0 h -26.9537 v 10.935 h 26.9537 z m 31.2858,-30.4269 h -26.9537 v 10.935 h 26.9537 z m -31.2858,0 h -26.9537 v 10.935 h 26.9537 z m 0.0234,-213.0284 h -26.9537 v 10.935 h 26.9537 z m 0,30.4275 h -26.9537 v 10.9344 h 26.9537 z"
       style="fill:#e30016;fill-rule:evenodd"
       id="path6" />
    <path
       d="m 614.4101,211.068 0.4756,-10.9344 h 20.8868 v 10.9344 z m 40.0486,-10.9344 1.8913,10.9344 h -16.2454 v -10.9344 z"
       style="fill:#e30016;fill-rule:evenodd"
       id="path8" />
    <path
       d="m 652.0752,186.3557 -0.1004,-0.5838 h -26.8533 v 10.0827 h 26.9537 z"
       style="fill:#e30016;fill-rule:evenodd"
       id="path10" />
    <path
       d="m 615.2769,195.8546 0.321,-10.2091 5.5303,0.2708 v 9.9383 z"
       style="fill:#e30016;fill-rule:evenodd"
       id="path12" />
    <path
       d="m 151.2739,468.4101 50.115,-285.4233 h 40.7189 l 15.6608,323.787 -96.315,-19.1819 z"
       style="fill:#1b1918;fill-rule:evenodd"
       id="path14" />
    <path
       d="m 241.6796,226.2814 -0.4756,-10.935 h -6.9041 v 10.935 z m 0.6623,15.2141 -0.4756,-10.9351 h -22.2107 v 10.9351 z m 0.6622,15.2128 -0.4762,-10.9344 h -8.228 v 10.9344 z m 0.6642,15.2538 -0.4763,-10.9351 h -23.513 v 10.9351 z m 0.6616,15.2128 -0.4756,-10.9344 h -9.531 v 10.9344 z m 0.6623,15.214 -0.4756,-10.935 H 219.679 v 10.935 z m 0.6622,15.2129 -0.4762,-10.9345 h -10.8549 v 10.9345 z m 0.6623,15.214 -0.4762,-10.935 H 219.679 v 10.935 z m 0.6616,15.2134 -0.4756,-10.935 h -12.1794 v 10.935 z m 1.3246,30.4269 -0.4756,-10.9344 h -13.504 v 10.9344 z m 1.3245,30.4269 -0.4762,-10.9351 h -14.8279 v 10.9351 z m 1.3239,30.4268 -0.4756,-10.935 h -16.1524 v 10.935 z m 1.3245,30.4269 -0.4762,-10.935 h -17.4763 v 10.935 z m 0.6616,15.214 -0.4755,-10.935 h -1.8353 v 10.935 z m 0.6623,15.2129 -0.4756,-10.9344 h -18.8008 v 9.06 l 9.9431,1.8744 z m -50.2234,-7.7058 26.9537,5.079 v -8.3076 h -26.9537 z m -17.1356,-3.2286 12.8035,2.4124 v -2.4124 z m -26.7388,-15.2135 4.6802,10.935 h 20.9842 v -10.935 z m -1.8315,-4.279 -2.3761,-5.5509 0.9314,-5.3841 h 12.6385 v 10.935 z m 1.1871,-26.1478 -0.645,3.7258 v 7.2086 h 26.9538 v -10.9344 z m 2.6318,-15.2141 -1.8919,10.935 h 9.2668 v -10.935 z m 2.6312,-15.2128 -1.8913,10.9344 h 22.9371 V 413.162 Z m 2.6318,-15.2141 -1.8913,10.9351 h 4.0032 v -10.9351 z m 2.6318,-15.2134 -1.8919,10.935 h 17.6741 v -10.935 z m 5.263,-30.4269 -1.8913,10.9351 h 12.4105 v -10.9351 z m 2.6318,-15.2134 -1.8919,10.935 h 23.6572 v -10.935 z m 2.6312,-15.2134 -1.8913,10.935 h 7.1475 v -10.935 z m 2.6317,-15.2135 -1.8912,10.9345 h 18.3936 v -10.9345 z m 2.6245,-15.1737 -1.8846,10.8953 h 1.8846 z m 2.6385,-15.2531 -1.8913,10.9344 h 13.1307 v -10.9344 z m 2.6312,-15.2135 -1.8913,10.9351 h 26.8022 V 261.027 Z m 2.6386,-15.2531 -1.8913,10.9344 h 7.8375 v -10.9344 z m 2.6318,-15.2135 -1.8919,10.9351 h 21.509 v -10.9351 z m 2.6311,-15.214 -1.8912,10.935 h 2.5745 v -10.935 z m -9.945,106.5344 h 26.9544 v 10.935 h -26.9544 z m 0,60.8537 h 26.9544 v 10.935 h -26.9544 z m 31.2865,0 h 26.9543 v 10.935 H 219.679 Z m -31.2865,-91.2806 h 26.9544 v 10.935 h -26.9544 z m 0,60.8537 h 26.9544 v 10.9351 h -26.9544 z m 31.2865,0 h 26.9543 v 10.9351 H 219.679 Z m -31.2865,60.8544 h 26.9544 v 10.9344 h -26.9544 z m 31.2865,0 h 26.9543 v 10.9344 H 219.679 Z M 203.3763,276.2405 H 230.33 v 10.9344 h -26.9537 z m 0,60.8537 H 230.33 v 10.935 h -26.9537 z m -31.2859,60.8537 h 26.9538 v 10.9351 h -26.9538 z m 31.2859,0 H 230.33 v 10.9351 h -26.9537 z m 0,-91.2806 H 230.33 v 10.9345 h -26.9537 z m -31.2859,60.8544 h 26.9538 v 10.9344 h -26.9538 z m 31.2859,0 H 230.33 v 10.9344 h -26.9537 z m -14.9838,76.0672 h 26.9544 v 10.9344 h -26.9544 z m 31.2865,0 h 26.9543 v 10.9344 H 219.679 Z m -31.2865,30.4268 h 26.9544 v 10.935 h -26.9544 z m 31.2865,0 h 26.9543 v 10.935 H 219.679 Z m -47.5886,-15.214 h 26.9538 v 10.935 h -26.9538 z m 31.2859,0 H 230.33 v 10.935 h -26.9537 z m -31.2859,-30.4269 h 26.9538 v 10.935 h -26.9538 z m 31.2859,0 H 230.33 v 10.935 h -26.9537 z m -0.0234,-213.0284 h 26.9537 v 10.935 h -26.9537 z m 0,30.4275 h 26.9537 v 10.9344 h -26.9537 z"
       style="fill:#e30016;fill-rule:evenodd"
       id="path16" />
    <path
       d="m 241.018,211.068 -0.4756,-10.9344 h -20.8868 v 10.9344 z m -40.0487,-10.9344 -1.8913,10.9344 h 16.2455 v -10.9344 z"
       style="fill:#e30016;fill-rule:evenodd;stroke:#1b1918;stroke-width:0.0037;stroke-linecap:butt;stroke-linejoin:miter;stroke-dasharray:none"
       id="path18" />
    <path
       d="m 203.3529,186.3557 0.1004,-0.5838 h 26.8533 v 10.0827 h -26.9537 z"
       style="fill:#e30016;fill-rule:evenodd"
       id="path20" />
    <path
       d="m 240.1512,195.8546 -0.321,-10.2091 -5.5303,0.2708 v 9.9383 z"
       style="fill:#e30016;fill-rule:evenodd"
       id="path22" />
    <path
       d="m 558.4549,179.9935 v 264.7498 c 0,16.2403 -13.6044,29.533 -30.2268,29.533 h -82.6293 c -13.0715,4.5186 -21.2743,12.5632 -24.1285,24.4812 -2.1944,-12.5879 -9.8224,-21.034 -24.0083,-24.4812 h -82.1063 c -16.6243,0 -30.2268,-13.2897 -30.2268,-29.533 V 179.9935 Z"
       style="fill:#009ee0;fill-rule:evenodd"
       id="path24" />
    <defs
       id="defs31">
      <radialGradient
         id="grad1"
         cx="0.5"
         cy="0.5"
         r="1">
        <stop
           offset="0%"
           stop-color="#ffffff"
           stop-opacity="1.0000"
           id="stop26" />
        <stop
           offset="100%"
           stop-color="#1b1918"
           stop-opacity="1.0000"
           id="stop28" />
      </radialGradient>
    </defs>
    <path
       d="M 558.0409,181.4898 C 534.7182,165.9303 495.5321,137.996 421.0095,139.6187 346.4869,134.2099 286.3838,181.4904 286.1787,182.9868 L 261.5056,119.608 c 0,0 155.5882,-99.5858 319.3331,4.9177 z"
       style="fill:url(#grad1);stroke:#1b1918;stroke-width:3.1012;stroke-linecap:butt;stroke-linejoin:miter;stroke-dasharray:none"
       id="path33" />
    <path
       d="m 268.4073,129.4433 c 3.5374,-1.1111 159.0301,-87.0389 303.6483,5.5328"
       style="fill:none;stroke:#1b1918;stroke-width:3.1012;stroke-linecap:butt;stroke-linejoin:miter;stroke-dasharray:none"
       id="path35" />
    <path
       d="m 274.6812,141.6586 c 5.7521,-5.7561 151.68,-95.6084 291.7282,5.5328"
       style="fill:none;stroke:#1b1918;stroke-width:3.1012;stroke-linecap:butt;stroke-linejoin:miter;stroke-dasharray:none"
       id="path37" />
    <path
       d="m 277.8175,153.3382 c 1.1619,-4.515 133.9616,-96.6431 282.9458,2.4594"
       style="fill:none;stroke:#1b1918;stroke-width:3.1012;stroke-linecap:butt;stroke-linejoin:miter;stroke-dasharray:none"
       id="path39" />
    <path
       d="m 286.6013,162.4795 c 0.5741,-5.7567 118.432,-95.6084 268.5158,5.5334"
       style="fill:none;stroke:#1b1918;stroke-width:3.1012;stroke-linecap:butt;stroke-linejoin:miter;stroke-dasharray:none"
       id="path41" />
    <path
       d="m 270.2259,114.3936 4.8496,11.6646"
       style="fill:none;stroke:#1b1918;stroke-width:3.1012;stroke-linecap:butt;stroke-linejoin:miter;stroke-dasharray:none"
       id="path43" />
    <path
       d="m 283.232,122.3859 -4.4085,-12.3122"
       style="fill:none;stroke:#1b1918;stroke-width:3.1012;stroke-linecap:butt;stroke-linejoin:miter;stroke-dasharray:none"
       id="path45" />
    <path
       d="m 286.9801,106.8335 3.7475,12.3122"
       style="fill:none;stroke:#1b1918;stroke-width:3.1012;stroke-linecap:butt;stroke-linejoin:miter;stroke-dasharray:none"
       id="path47" />
    <path
       d="m 294.2545,103.1619 4.1886,12.9598"
       style="fill:none;stroke:#1b1918;stroke-width:3.1012;stroke-linecap:butt;stroke-linejoin:miter;stroke-dasharray:none"
       id="path49" />
    <path
       d="m 305.4976,113.3138 -3.968,-13.176"
       style="fill:none;stroke:#1b1918;stroke-width:3.1012;stroke-linecap:butt;stroke-linejoin:miter;stroke-dasharray:none"
       id="path51" />
    <path
       d="m 353.3344,84.3694 3.968,14.6886"
       style="fill:none;stroke:#1b1918;stroke-width:3.1012;stroke-linecap:butt;stroke-linejoin:miter;stroke-dasharray:none"
       id="path53" />
    <path
       d="M 365.2385,97.3299 362.3726,82.4258"
       style="fill:none;stroke:#1b1918;stroke-width:3.1012;stroke-linecap:butt;stroke-linejoin:miter;stroke-dasharray:none"
       id="path55" />
    <path
       d="m 369.8675,81.1299 2.8659,14.9041"
       style="fill:none;stroke:#1b1918;stroke-width:3.1012;stroke-linecap:butt;stroke-linejoin:miter;stroke-dasharray:none"
       id="path57" />
    <path
       d="M 380.2284,94.9535 378.0241,79.8334"
       style="fill:none;stroke:#1b1918;stroke-width:3.1012;stroke-linecap:butt;stroke-linejoin:miter;stroke-dasharray:none"
       id="path59" />
    <path
       d="m 385.2991,78.9696 2.2043,15.1202"
       style="fill:none;stroke:#1b1918;stroke-width:3.1012;stroke-linecap:butt;stroke-linejoin:miter;stroke-dasharray:none"
       id="path61" />
    <path
       d="M 395.2189,93.226 394.3373,77.6737"
       style="fill:none;stroke:#1b1918;stroke-width:3.1012;stroke-linecap:butt;stroke-linejoin:miter;stroke-dasharray:none"
       id="path63" />
    <path
       d="m 448.3464,78.3214 -1.3227,14.6885"
       style="fill:none;stroke:#1b1918;stroke-width:3.1012;stroke-linecap:butt;stroke-linejoin:miter;stroke-dasharray:none"
       id="path65" />
    <path
       d="m 455.4009,93.8737 1.5432,-14.9041"
       style="fill:none;stroke:#1b1918;stroke-width:3.1012;stroke-linecap:butt;stroke-linejoin:miter;stroke-dasharray:none"
       id="path67" />
    <path
       d="m 465.3212,80.2656 -2.2048,14.6879"
       style="fill:none;stroke:#1b1918;stroke-width:3.1012;stroke-linecap:butt;stroke-linejoin:miter;stroke-dasharray:none"
       id="path69" />
    <path
       d="m 471.0524,96.034 3.0865,-14.4725"
       style="fill:none;stroke:#1b1918;stroke-width:3.1012;stroke-linecap:butt;stroke-linejoin:miter;stroke-dasharray:none"
       id="path71" />
    <path
       d="M 481.6338,83.2896 478.548,97.3299"
       style="fill:none;stroke:#1b1918;stroke-width:3.1012;stroke-linecap:butt;stroke-linejoin:miter;stroke-dasharray:none"
       id="path73" />
    <path
       d="m 485.6018,98.6258 3.7475,-13.6081"
       style="fill:none;stroke:#1b1918;stroke-width:3.1012;stroke-linecap:butt;stroke-linejoin:miter;stroke-dasharray:none"
       id="path75" />
    <path
       d="m 538.9499,102.082 -4.1886,12.7438"
       style="fill:none;stroke:#1b1918;stroke-width:3.1012;stroke-linecap:butt;stroke-linejoin:miter;stroke-dasharray:none"
       id="path77" />
    <path
       d="m 540.4931,117.6337 5.7318,-12.0961"
       style="fill:none;stroke:#1b1918;stroke-width:3.1012;stroke-linecap:butt;stroke-linejoin:miter;stroke-dasharray:none"
       id="path79" />
    <path
       d="m 552.8377,108.9938 -5.7312,12.0961"
       style="fill:none;stroke:#1b1918;stroke-width:3.1012;stroke-linecap:butt;stroke-linejoin:miter;stroke-dasharray:none"
       id="path81" />
    <path
       d="m 553.2788,123.8979 6.8333,-11.6646"
       style="fill:none;stroke:#1b1918;stroke-width:3.1012;stroke-linecap:butt;stroke-linejoin:miter;stroke-dasharray:none"
       id="path83" />
    <path
       d="m 566.7261,116.3378 -6.6134,10.8002"
       style="fill:none;stroke:#1b1918;stroke-width:3.1012;stroke-linecap:butt;stroke-linejoin:miter;stroke-dasharray:none"
       id="path85" />
    <defs
       id="defs92">
      <radialGradient
         id="grad2"
         cx="0.5"
         cy="0.5"
         r="1">
        <stop
           offset="0%"
           stop-color="#ffffff"
           stop-opacity="1.0000"
           id="stop87" />
        <stop
           offset="100%"
           stop-color="#1b1918"
           stop-opacity="1.0000"
           id="stop89" />
      </radialGradient>
    </defs>
    <path
       d="m 307.2724,73.1798 12.2263,87.1485 c 0,0 24.3792,-11.7422 48.6389,-16.5431 L 337.8732,66.9199 Z"
       style="fill:url(#grad2);stroke:#1b1918;stroke-width:3.1012;stroke-linecap:butt;stroke-linejoin:miter;stroke-dasharray:none"
       id="path94" />
    <path
       d="m 316.3519,139.0788 c 0,0 11.4802,-8.791 45.444,-11.7566"
       style="fill:none;stroke:#1b1918;stroke-width:3.1012;stroke-linecap:butt;stroke-linejoin:miter;stroke-dasharray:none"
       id="path96" />
    <path
       d="m 357.8304,117.541 c 0,0 -26.6827,2.427 -42.1512,9.3466"
       style="fill:none;stroke:#1b1918;stroke-width:3.1012;stroke-linecap:butt;stroke-linejoin:miter;stroke-dasharray:none"
       id="path98" />
    <path
       d="m 312.6525,112.7197 c 0,0 29.1857,-1.2496 39.2742,-10.1459"
       style="fill:none;stroke:#1b1918;stroke-width:3.1012;stroke-linecap:butt;stroke-linejoin:miter;stroke-dasharray:none"
       id="path100" />
    <path
       d="m 311.3076,100.1986 c 0,0 25.5559,2.9651 35.9808,-10.5437"
       style="fill:none;stroke:#1b1918;stroke-width:3.1012;stroke-linecap:butt;stroke-linejoin:miter;stroke-dasharray:none"
       id="path102" />
    <defs
       id="defs109">
      <radialGradient
         id="grad3"
         cx="0.52999997"
         cy="0.52999997"
         r="1">
        <stop
           offset="0%"
           stop-color="#ffffff"
           stop-opacity="1.0000"
           id="stop104" />
        <stop
           offset="100%"
           stop-color="#1b1918"
           stop-opacity="1.0000"
           id="stop106" />
      </radialGradient>
    </defs>
    <path
       d="m 285.1289,60.0496 c 0,0 6.675,26.9695 39.2933,18.7322 32.6184,-8.2372 23.8753,-33.2787 23.8753,-33.2787 h -12.7782 l -0.6728,12.949 -7.3976,1.2929 -6.0534,-12.5945 -10.4243,2.3066 -0.0505,13.8134 -8.0198,1.6727 -6.3891,-10.5438 z"
       style="fill:url(#grad3);stroke:#1b1918;stroke-width:3.1012;stroke-linecap:butt;stroke-linejoin:miter;stroke-dasharray:none"
       id="path111" />
    <path
       d="m 308.9537,89.6549 c 0,0 20.8486,3.9539 34.6359,-9.2256"
       style="fill:none;stroke:#1b1918;stroke-width:3.1012;stroke-linecap:butt;stroke-linejoin:miter;stroke-dasharray:none"
       id="path113" />
    <path
       d="m 326.1487,111.3413 5.615,21.5345 14.3712,-3.3054 -5.615,-21.5344 z"
       style="fill:#1b1918;fill-rule:evenodd;stroke:#1b1918;stroke-width:2.3954;stroke-linecap:butt;stroke-linejoin:miter;stroke-dasharray:none"
       id="path115" />
    <defs
       id="defs122">
      <radialGradient
         id="grad4"
         cx="0.5"
         cy="0.5"
         r="1">
        <stop
           offset="0%"
           stop-color="#ffffff"
           stop-opacity="1.0000"
           id="stop117" />
        <stop
           offset="100%"
           stop-color="#1b1918"
           stop-opacity="1.0000"
           id="stop119" />
      </radialGradient>
    </defs>
    <path
       d="m 536.3113,73.1798 -13.8822,86.5706 c 0,0 -23.4631,-10.6124 -47.5349,-15.9652 l 30.8164,-76.8653 z"
       style="fill:url(#grad4);stroke:#1b1918;stroke-width:3.1012;stroke-linecap:butt;stroke-linejoin:miter;stroke-dasharray:none"
       id="path124" />
    <path
       d="m 526.2493,138.8862 c 0,0 -10.8691,-8.7031 -44.833,-11.6688"
       style="fill:none;stroke:#1b1918;stroke-width:3.1012;stroke-linecap:butt;stroke-linejoin:miter;stroke-dasharray:none"
       id="path126" />
    <path
       d="m 485.5082,117.3322 c 0,0 26.9278,2.6358 42.3964,9.5554"
       style="fill:none;stroke:#1b1918;stroke-width:3.1012;stroke-linecap:butt;stroke-linejoin:miter;stroke-dasharray:none"
       id="path128" />
    <path
       d="m 529.9487,112.7197 c 0,0 -28.33,-0.9884 -38.4185,-9.8847"
       style="fill:none;stroke:#1b1918;stroke-width:3.1012;stroke-linecap:butt;stroke-linejoin:miter;stroke-dasharray:none"
       id="path130" />
    <path
       d="m 532.2762,100.1986 c 0,0 -25.5559,2.9651 -35.9808,-10.5437"
       style="fill:none;stroke:#1b1918;stroke-width:3.1012;stroke-linecap:butt;stroke-linejoin:miter;stroke-dasharray:none"
       id="path132" />
    <defs
       id="defs139">
      <radialGradient
         id="grad5"
         cx="0.52999997"
         cy="0.52999997"
         r="1">
        <stop
           offset="0%"
           stop-color="#ffffff"
           stop-opacity="1.0000"
           id="stop134" />
        <stop
           offset="100%"
           stop-color="#1b1918"
           stop-opacity="1.0000"
           id="stop136" />
      </radialGradient>
    </defs>
    <path
       d="m 558.4549,60.0496 c 0,0 -6.675,26.9695 -39.2934,18.7322 -32.6183,-8.2372 -23.8752,-33.2787 -23.8752,-33.2787 h 12.7782 l 0.6727,12.949 7.3977,1.2929 6.0533,-12.5945 10.4243,2.3066 0.0505,13.8134 8.0199,1.6727 6.3891,-10.5438 z"
       style="fill:url(#grad5);stroke:#1b1918;stroke-width:3.1012;stroke-linecap:butt;stroke-linejoin:miter;stroke-dasharray:none"
       id="path141" />
    <path
       d="m 534.0406,89.8475 c 0,0 -20.2591,3.7613 -34.0464,-9.4182"
       style="fill:none;stroke:#1b1918;stroke-width:3.1012;stroke-linecap:butt;stroke-linejoin:miter;stroke-dasharray:none"
       id="path143" />
    <path
       d="m 517.435,111.3413 -5.6149,21.5345 -14.3712,-3.3054 5.6149,-21.5344 z"
       style="fill:#1b1918;fill-rule:evenodd;stroke:#1b1918;stroke-width:2.3954;stroke-linecap:butt;stroke-linejoin:miter;stroke-dasharray:none"
       id="path145" />
    <defs
       id="defs152">
      <radialGradient
         id="grad6"
         cx="0.5"
         cy="0.5"
         r="1">
        <stop
           offset="0%"
           stop-color="#ffffff"
           stop-opacity="1.0000"
           id="stop147" />
        <stop
           offset="100%"
           stop-color="#1b1918"
           stop-opacity="1.0000"
           id="stop149" />
      </radialGradient>
    </defs>
    <path
       d="m 406.0494,56.1306 -8.8271,83.567 c 6.2215,-0.2325 21.8705,-1.4965 49.5469,0.505 l -9.4868,-82.7051 z"
       style="fill:url(#grad6);stroke:#1b1918;stroke-width:3.0039;stroke-linecap:butt;stroke-linejoin:miter;stroke-dasharray:none"
       id="path154" />
    <path
       d="m 399.2352,121.8842 c 0,0 11.8151,-5.408 45.4677,-0.0335"
       style="fill:none;stroke:#1b1918;stroke-width:3.0039;stroke-linecap:butt;stroke-linejoin:miter;stroke-dasharray:none"
       id="path156" />
    <path
       d="m 443.5525,111.2034 c 0,0 -26.2781,-3.9552 -43.0214,-1.0087"
       style="fill:none;stroke:#1b1918;stroke-width:3.0039;stroke-linecap:butt;stroke-linejoin:miter;stroke-dasharray:none"
       id="path158" />
    <path
       d="m 401.8072,95.8436 c 2.5081,1.6069 25.957,5.4612 39.6939,-0.2101"
       style="fill:none;stroke:#1b1918;stroke-width:3.0039;stroke-linecap:butt;stroke-linejoin:miter;stroke-dasharray:none"
       id="path160" />
    <path
       d="m 403.0854,83.2815 c 0,0 19.8819,8.3236 37.0398,-1.2078"
       style="fill:none;stroke:#1b1918;stroke-width:3.0039;stroke-linecap:butt;stroke-linejoin:miter;stroke-dasharray:none"
       id="path162" />
    <defs
       id="defs169">
      <radialGradient
         id="grad7"
         cx="0.52999997"
         cy="0.52999997"
         r="1">
        <stop
           offset="0%"
           stop-color="#ffffff"
           stop-opacity="1.0000"
           id="stop164" />
        <stop
           offset="100%"
           stop-color="#1b1918"
           stop-opacity="1.0000"
           id="stop166" />
      </radialGradient>
    </defs>
    <path
       d="m 387.9404,38.0355 c 0,0 -0.3945,27.7441 33.2958,27.6857 33.6902,-0.0585 31.591,-26.4373 31.591,-26.4373 l -12.3773,-3.1028 -3.9454,12.3794 -7.4944,-0.5439 -2.6599,-13.6693 -10.6839,-0.297 -3.5625,13.3677 -8.1937,-0.3271 -3.5068,-11.7644 z"
       style="fill:url(#grad7);stroke:#1b1918;stroke-width:3.0039;stroke-linecap:butt;stroke-linejoin:miter;stroke-dasharray:none"
       id="path171" />
    <path
       d="m 403.4872,72.497 c 0,0 19.1888,8.8924 35.8959,-0.5259"
       style="fill:none;stroke:#1b1918;stroke-width:3.0039;stroke-linecap:butt;stroke-linejoin:miter;stroke-dasharray:none"
       id="path173" />
    <path
       d="m 414.6266,97.6784 -0.0388,22.2222 14.7611,0.288 0.0388,-22.2223 z"
       style="fill:#1b1918;fill-rule:evenodd;stroke:#1b1918;stroke-width:2.4588;stroke-linecap:butt;stroke-linejoin:miter;stroke-dasharray:none"
       id="path175" />
    <defs
       id="defs182">
      <radialGradient
         id="grad8"
         cx="0.5"
         cy="0.5"
         r="1">
        <stop
           offset="0%"
           stop-color="#ffffff"
           stop-opacity="1.0000"
           id="stop177" />
        <stop
           offset="100%"
           stop-color="#1b1918"
           stop-opacity="1.0000"
           id="stop179" />
      </radialGradient>
    </defs>
    <path
       d="m 240.2083,110.7868 44.9077,69.2068 c 6.1745,-4.2438 14.7899,-9.9284 22.9783,-13.9544 l -53.8167,-63.128 z"
       style="fill:url(#grad8);stroke:#1b1918;stroke-width:2.6192;stroke-linecap:butt;stroke-linejoin:miter;stroke-dasharray:none"
       id="path184" />
    <defs
       id="defs191">
      <radialGradient
         id="grad9"
         cx="0.5"
         cy="0.5"
         r="1">
        <stop
           offset="0%"
           stop-color="#ffffff"
           stop-opacity="1.0000"
           id="stop186" />
        <stop
           offset="100%"
           stop-color="#1b1918"
           stop-opacity="1.0000"
           id="stop188" />
      </radialGradient>
    </defs>
    <path
       d="m 274.6456,163.8579 c 5.7183,-3.4282 11.6946,-6.6128 20.9946,-10.4871 -9.3,3.8743 -15.2761,7.0581 -20.9946,10.4871 z"
       style="fill:url(#grad9);stroke:#1b1918;stroke-width:2.6192;stroke-linecap:butt;stroke-linejoin:miter;stroke-dasharray:none"
       id="path193" />
    <defs
       id="defs200">
      <radialGradient
         id="grad10"
         cx="0.5"
         cy="0.5"
         r="1">
        <stop
           offset="0%"
           stop-color="#ffffff"
           stop-opacity="1.0000"
           id="stop195" />
        <stop
           offset="100%"
           stop-color="#1b1918"
           stop-opacity="1.0000"
           id="stop197" />
      </radialGradient>
    </defs>
    <path
       d="m 268.9699,155.111 c 10.8636,-6.1678 19.9242,-9.9231 19.9242,-9.9231 0,0 -9.0606,3.7553 -19.9242,9.9231 z"
       style="fill:url(#grad10);stroke:#1b1918;stroke-width:2.6192;stroke-linecap:butt;stroke-linejoin:miter;stroke-dasharray:none"
       id="path202" />
    <defs
       id="defs209">
      <radialGradient
         id="grad11"
         cx="0.5"
         cy="0.5"
         r="1">
        <stop
           offset="0%"
           stop-color="#ffffff"
           stop-opacity="1.0000"
           id="stop204" />
        <stop
           offset="100%"
           stop-color="#1b1918"
           stop-opacity="1.0000"
           id="stop206" />
      </radialGradient>
    </defs>
    <path
       d="m 262.9514,145.8361 c 6.5121,-3.5999 13.1529,-8.9194 15.9979,-13.7427 -2.845,4.8233 -9.4863,10.1431 -15.9979,13.7427 z"
       style="fill:url(#grad11);stroke:#1b1918;stroke-width:2.6192;stroke-linecap:butt;stroke-linejoin:miter;stroke-dasharray:none"
       id="path211" />
    <defs
       id="defs218">
      <radialGradient
         id="grad12"
         cx="0.5"
         cy="0.5"
         r="1">
        <stop
           offset="0%"
           stop-color="#ffffff"
           stop-opacity="1.0000"
           id="stop213" />
        <stop
           offset="100%"
           stop-color="#1b1918"
           stop-opacity="1.0000"
           id="stop215" />
      </radialGradient>
    </defs>
    <path
       d="m 256.6908,136.1879 c 5.8098,-3.2524 11.4124,-7.9402 13.7262,-14.4928 -2.3138,6.5526 -7.9166,11.2412 -13.7262,14.4928 z"
       style="fill:url(#grad12);stroke:#1b1918;stroke-width:2.6192;stroke-linecap:butt;stroke-linejoin:miter;stroke-dasharray:none"
       id="path220" />
    <defs
       id="defs227">
      <radialGradient
         id="grad13"
         cx="0.51499999"
         cy="0.51499999"
         r="1">
        <stop
           offset="0%"
           stop-color="#ffffff"
           stop-opacity="1.0000"
           id="stop222" />
        <stop
           offset="100%"
           stop-color="#1b1918"
           stop-opacity="1.0000"
           id="stop224" />
      </radialGradient>
    </defs>
    <path
       d="m 227.8291,91.7105 17.2732,26.6197 c 0.0432,-0.0268 0.0864,-0.0514 0.1301,-0.0784 28.4211,-17.6745 12.1919,-38.8552 12.1919,-38.8552 l -12.1538,3.8547 3.4521,12.5189 -6.6277,3.4611 -9.7376,-10.1526 z"
       style="fill:url(#grad13);stroke:#1b1918;stroke-width:2.6192;stroke-linecap:butt;stroke-linejoin:miter;stroke-dasharray:none"
       id="path229" />
    <defs
       id="defs236">
      <radialGradient
         id="grad14"
         cx="0.5"
         cy="0.5"
         r="1">
        <stop
           offset="0%"
           stop-color="#ffffff"
           stop-opacity="1.0000"
           id="stop231" />
        <stop
           offset="100%"
           stop-color="#1b1918"
           stop-opacity="1.0000"
           id="stop233" />
      </radialGradient>
    </defs>
    <path
       d="m 250.893,127.253 c 4.9039,-2.8858 9.8113,-7.0995 13.0905,-13.2174 -3.2792,6.1179 -8.1871,10.3319 -13.0905,13.2174 z"
       style="fill:url(#grad14);stroke:#1b1918;stroke-width:2.6192;stroke-linecap:butt;stroke-linejoin:miter;stroke-dasharray:none"
       id="path238" />
    <path
       d="m 262.6862,145.4273 12.1788,18.7686 7.0685,-4.1869 -12.1454,-18.7892 z"
       style="fill:#1b1918;fill-rule:evenodd;stroke:#1b1918;stroke-width:2.6192;stroke-linecap:butt;stroke-linejoin:miter;stroke-dasharray:none"
       id="path240" />
    <defs
       id="defs247">
      <radialGradient
         id="grad15"
         cx="0.5"
         cy="0.5"
         r="1">
        <stop
           offset="0%"
           stop-color="#ffffff"
           stop-opacity="1.0000"
           id="stop242" />
        <stop
           offset="100%"
           stop-color="#1b1918"
           stop-opacity="1.0000"
           id="stop244" />
      </radialGradient>
    </defs>
    <path
       d="m 603.2566,110.7868 -44.9077,69.2068 c -6.5667,-3.9643 -13.8627,-8.8359 -21.9537,-13.0524 l 52.7921,-64.03 z"
       style="fill:url(#grad15);stroke:#1b1918;stroke-width:2.6192;stroke-linecap:butt;stroke-linejoin:miter;stroke-dasharray:none"
       id="path249" />
    <defs
       id="defs256">
      <radialGradient
         id="grad16"
         cx="0.5"
         cy="0.5"
         r="1">
        <stop
           offset="0%"
           stop-color="#ffffff"
           stop-opacity="1.0000"
           id="stop251" />
        <stop
           offset="100%"
           stop-color="#1b1918"
           stop-opacity="1.0000"
           id="stop253" />
      </radialGradient>
    </defs>
    <path
       d="m 568.8193,163.8579 c -5.7184,-3.4282 -11.6947,-6.6128 -20.9946,-10.4871 9.2999,3.8743 15.2761,7.0581 20.9946,10.4871 z"
       style="fill:url(#grad16);stroke:#1b1918;stroke-width:2.6192;stroke-linecap:butt;stroke-linejoin:miter;stroke-dasharray:none"
       id="path258" />
    <defs
       id="defs265">
      <radialGradient
         id="grad17"
         cx="0.5"
         cy="0.5"
         r="1">
        <stop
           offset="0%"
           stop-color="#ffffff"
           stop-opacity="1.0000"
           id="stop260" />
        <stop
           offset="100%"
           stop-color="#1b1918"
           stop-opacity="1.0000"
           id="stop262" />
      </radialGradient>
    </defs>
    <path
       d="m 574.495,155.111 c -10.8637,-6.1678 -19.9243,-9.9231 -19.9243,-9.9231 0,0 9.0606,3.7553 19.9243,9.9231 z"
       style="fill:url(#grad17);stroke:#1b1918;stroke-width:2.6192;stroke-linecap:butt;stroke-linejoin:miter;stroke-dasharray:none"
       id="path267" />
    <defs
       id="defs274">
      <radialGradient
         id="grad18"
         cx="0.5"
         cy="0.5"
         r="1">
        <stop
           offset="0%"
           stop-color="#ffffff"
           stop-opacity="1.0000"
           id="stop269" />
        <stop
           offset="100%"
           stop-color="#1b1918"
           stop-opacity="1.0000"
           id="stop271" />
      </radialGradient>
    </defs>
    <path
       d="m 580.5135,145.8361 c -6.5122,-3.5999 -13.1529,-8.9194 -15.9979,-13.7427 2.845,4.8233 9.4863,10.1431 15.9979,13.7427 z"
       style="fill:url(#grad18);stroke:#1b1918;stroke-width:2.6192;stroke-linecap:butt;stroke-linejoin:miter;stroke-dasharray:none"
       id="path276" />
    <defs
       id="defs283">
      <radialGradient
         id="grad19"
         cx="0.5"
         cy="0.5"
         r="1">
        <stop
           offset="0%"
           stop-color="#ffffff"
           stop-opacity="1.0000"
           id="stop278" />
        <stop
           offset="100%"
           stop-color="#1b1918"
           stop-opacity="1.0000"
           id="stop280" />
      </radialGradient>
    </defs>
    <path
       d="m 586.7741,136.1879 c -5.8098,-3.2524 -11.4124,-7.9402 -13.7262,-14.4928 2.3138,6.5526 7.9166,11.2412 13.7262,14.4928 z"
       style="fill:url(#grad19);stroke:#1b1918;stroke-width:2.6192;stroke-linecap:butt;stroke-linejoin:miter;stroke-dasharray:none"
       id="path285" />
    <defs
       id="defs292">
      <radialGradient
         id="grad20"
         cx="0.51499999"
         cy="0.51499999"
         r="1">
        <stop
           offset="0%"
           stop-color="#ffffff"
           stop-opacity="1.0000"
           id="stop287" />
        <stop
           offset="100%"
           stop-color="#1b1918"
           stop-opacity="1.0000"
           id="stop289" />
      </radialGradient>
    </defs>
    <path
       d="m 615.6358,91.7105 -17.2733,26.6197 c -0.0431,-0.0268 -0.0863,-0.0514 -0.13,-0.0784 -28.4211,-17.6745 -12.192,-38.8552 -12.192,-38.8552 l 12.1539,3.8547 -3.4521,12.5189 6.6277,3.4611 9.7376,-10.1526 z"
       style="fill:url(#grad20);stroke:#1b1918;stroke-width:2.6192;stroke-linecap:butt;stroke-linejoin:miter;stroke-dasharray:none"
       id="path294" />
    <defs
       id="defs301">
      <radialGradient
         id="grad21"
         cx="0.5"
         cy="0.5"
         r="1">
        <stop
           offset="0%"
           stop-color="#ffffff"
           stop-opacity="1.0000"
           id="stop296" />
        <stop
           offset="100%"
           stop-color="#1b1918"
           stop-opacity="1.0000"
           id="stop298" />
      </radialGradient>
    </defs>
    <path
       d="m 592.5718,127.253 c -4.9038,-2.8858 -9.8112,-7.0995 -13.0905,-13.2174 3.2793,6.1179 8.1872,10.3319 13.0905,13.2174 z"
       style="fill:url(#grad21);stroke:#1b1918;stroke-width:2.6192;stroke-linecap:butt;stroke-linejoin:miter;stroke-dasharray:none"
       id="path303" />
    <path
       d="m 580.7787,145.4273 -12.1788,18.7686 -7.0685,-4.1869 12.1454,-18.7892 z"
       style="fill:#1b1918;fill-rule:evenodd;stroke:#1b1918;stroke-width:2.6192;stroke-linecap:butt;stroke-linejoin:miter;stroke-dasharray:none"
       id="path305" />
    <path
       d="m 332.5197,188.6448 a 2.2856,2.2331 0 0 1 2.2856,2.2331 2.2856,2.2331 0 1 1 -2.2856,-2.2331 z"
       style="fill:none;stroke:#1b1918;stroke-width:2.325;stroke-linecap:butt;stroke-linejoin:miter;stroke-dasharray:none"
       id="path307" />
    <path
       d="m 318.3491,207.1573 14.0184,-14.0336 18.4368,22.3949"
       style="fill:none;stroke:#1b1918;stroke-width:2.325;stroke-linecap:butt;stroke-linejoin:miter;stroke-dasharray:none"
       id="path309" />
    <defs
       id="defs316">
      <linearGradient
         id="grad22">
        <stop
           offset="0%"
           stop-color="#ffec00"
           stop-opacity="1.0000"
           id="stop311" />
        <stop
           offset="100%"
           stop-color="#ffffff"
           stop-opacity="1.0000"
           id="stop313" />
      </linearGradient>
    </defs>
    <path
       d="m 351.2614,214.9215 c 0,0 -14.4755,8.6585 -32.1502,-8.3613 -12.8608,3.88 -6.115,22.3492 -0.7621,21.0515 0,0 14.3234,1.1936 33.8265,-9.5555 3.5041,-2.9855 -0.7621,-3.1347 -0.9142,-3.1347 z"
       style="fill:url(#grad22);stroke:#1b1918;stroke-width:2.325;stroke-linecap:butt;stroke-linejoin:miter;stroke-dasharray:none"
       id="path318" />
    <path
       d="m 318.959,206.5602 c 0,0 4.2656,12.8401 -1.9812,21.0515"
       style="fill:none;stroke:#1b1918;stroke-width:2.325;stroke-linecap:butt;stroke-linejoin:miter;stroke-dasharray:none"
       id="path320" />
    <path
       d="m 510.9477,188.6171 a 2.2856,2.2331 0 0 0 -2.2856,2.2331 2.2856,2.2331 0 1 0 2.2856,-2.2331 z"
       style="fill:none;stroke:#1b1918;stroke-width:2.325;stroke-linecap:butt;stroke-linejoin:miter;stroke-dasharray:none"
       id="path322" />
    <path
       d="M 525.1182,207.1297 511.0998,193.096 492.6631,215.4909"
       style="fill:none;stroke:#1b1918;stroke-width:2.325;stroke-linecap:butt;stroke-linejoin:miter;stroke-dasharray:none"
       id="path324" />
    <defs
       id="defs331">
      <linearGradient
         id="grad23">
        <stop
           offset="0%"
           stop-color="#ffec00"
           stop-opacity="1.0000"
           id="stop326" />
        <stop
           offset="100%"
           stop-color="#ffffff"
           stop-opacity="1.0000"
           id="stop328" />
      </linearGradient>
    </defs>
    <path
       d="m 492.206,214.8938 c 0,0 14.4755,8.6585 32.1501,-8.3612 12.8608,3.8799 6.115,22.3491 0.7621,21.0514 0,0 -14.3233,1.1936 -33.8265,-9.5554 -3.5041,-2.9856 0.7621,-3.1348 0.9143,-3.1348 z"
       style="fill:url(#grad23);stroke:#1b1918;stroke-width:2.325;stroke-linecap:butt;stroke-linejoin:miter;stroke-dasharray:none"
       id="path333" />
    <path
       d="m 524.5083,206.5326 c 0,0 -4.2656,12.84 1.9812,21.0514"
       style="fill:none;stroke:#1b1918;stroke-width:2.325;stroke-linecap:butt;stroke-linejoin:miter;stroke-dasharray:none"
       id="path335" />
    <path
       d="m 452.1056,227.4683 v 60.0113 c 0,3.6812 -3.0176,6.6943 -6.7047,6.6943 h -18.3283 c -2.8995,1.0243 -4.7189,2.8478 -5.352,5.5492 -0.4868,-2.8533 -2.1788,-4.7678 -5.3254,-5.5492 h -18.2123 c -3.6875,0 -6.7047,-3.0124 -6.7047,-6.6943 v -60.0113 z"
       style="fill:#ffec00;fill-rule:evenodd;stroke:#1b1918;stroke-width:2.2783;stroke-linecap:butt;stroke-linejoin:miter;stroke-dasharray:none"
       id="path337" />
    <path
       d="m 424.5087,227.4756 c 0,0 -4.9617,6.2028 -2.5665,12.7402 -9.4084,-7.208 -21.042,3.0174 -18.8181,13.4101 10.9486,-9.3875 14.3708,-6.7054 14.3708,-6.7054 0,0 -23.4367,11.5665 -1.3683,23.4681 -2.7377,-16.2595 3.421,-18.2717 3.421,-18.2717 0,0 6.3294,15.589 -1.5401,20.618 -5.8169,4.0232 -26.5164,12.7396 -26.5164,12.7396 0,0 -1.1976,9.2195 7.8695,8.8843 9.0672,-0.3353 15.3965,-0.1674 15.3965,-0.1674 0,0 5.8175,-0.3352 7.0145,5.1964 1.197,-5.1964 6.5006,-5.1964 6.5006,-5.1964 h 16.5941 c 0,0 8.2108,0.1674 7.0138,-8.7169 -14.8833,-8.8837 -22.5816,-12.5723 -22.5816,-12.5723 0,0 -5.4736,-12.069 -0.6838,-20.4501 8.3821,2.6822 6.6713,17.4333 6.6713,17.4333 0,0 15.0546,-19.4449 -1.197,-22.6296 6.1587,-1.6763 11.1192,3.6879 11.1192,3.6879 0,0 -0.3425,-17.2659 -18.8181,-11.5664 -1.7101,-5.8669 -1.7101,-11.7343 -1.8814,-11.9017 z"
       style="fill:#009035;fill-rule:evenodd;stroke:#1b1918;stroke-width:2.325;stroke-linecap:butt;stroke-linejoin:miter;stroke-dasharray:none"
       id="path339" />
    <path
       d="m 558.4013,374.7086 0.0536,70.0347 c 0,16.2403 -13.6044,29.533 -30.2268,29.533 h -82.6293 c -13.0715,4.5186 -21.2743,12.5632 -24.1285,24.4812 -2.1944,-12.5879 -9.8224,-21.034 -24.0083,-24.4812 h -82.1063 c -16.6243,0 -30.2268,-13.2897 -30.2268,-29.533 v -78.9702 c 28.0324,-0.9637 63.1366,9.621 90.1587,-27.6358 11.1673,40.5054 71.4472,38.5486 94.6325,3.7018 21.7665,38.4516 57.9593,26.7516 88.4812,32.8695 z"
       style="fill:#ffec00;fill-rule:evenodd;stroke:#1b1918;stroke-width:2.325;stroke-linecap:butt;stroke-linejoin:miter;stroke-dasharray:none"
       id="path341" />
    <path
       d="m 285.0661,386.2232 170.6921,4.5367 c 0,0 29.6323,1.2092 7.7167,13.6099 l -37.0398,13.9127 c 0,0 -16.0507,6.0492 -0.3086,5.4443 l 132.2748,2.7219 v 12.7028 l -168.0807,-5.7471 c 0,0 -20.681,-2.4191 -4.9389,-11.4924 l 42.9053,-15.7274 c 0,0 15.4341,-7.5613 -2.1605,-6.9564 l -141.0604,-2.1169 z"
       style="fill:#102a83;fill-rule:evenodd;stroke:#1b1918;stroke-width:0.4997;stroke-linecap:butt;stroke-linejoin:miter;stroke-dasharray:none"
       id="path343" />
    <path
       d="m 198.016,401.356 c -1.1286,-0.2727 -2.2825,-0.4791 -3.4586,-0.6146 l -0.961,-7.6906 c -0.7849,-0.0145 -1.5728,-0.0217 -2.3663,-0.0217 -0.7454,0 -1.4952,0.008 -2.2338,0.0186 l -0.9586,7.6691 c -1.221,0.1324 -2.4193,0.34 -3.5892,0.6193 l -3.6298,-6.8401 c -0.7411,0.2534 -1.4822,0.5158 -2.2258,0.7867 -0.698,0.2546 -1.3984,0.5176 -2.0859,0.78 l 1.8358,7.4783 c -1.0867,0.5381 -2.1346,1.1418 -3.137,1.8063 l -5.8223,-5.1584 c -0.6044,0.4905 -1.205,0.9883 -1.8051,1.4957 -0.5643,0.4756 -1.1261,0.9607 -1.6781,1.441 l 4.3703,6.3587 c -0.7781,0.818 -1.5075,1.6817 -2.1821,2.5858 l -7.2368,-2.894 c -0.3967,0.6621 -0.7873,1.3302 -1.1742,2.0074 -0.3641,0.6356 -0.7239,1.2791 -1.0738,1.9135 l 6.2801,4.4879 c -0.3967,0.9095 -0.7448,1.8436 -1.0424,2.7995 l -7.7438,-0.4165 c -0.1534,0.7517 -0.2994,1.5084 -0.4386,2.2716 -0.1306,0.7175 -0.2551,1.4398 -0.3734,2.1518 l 7.394,2.2199 c -0.0419,0.6146 -0.0635,1.2345 -0.0635,1.8593 0,0.1409 0.001,0.2817 0.004,0.422 l -7.4906,2.3589 c 0.1435,0.9402 0.2938,1.8804 0.454,2.8236 0.1688,0.9973 0.3438,1.9875 0.5267,2.9722 l 7.8498,-0.121 c 0.1941,0.5929 0.4072,1.178 0.6401,1.7528 l -6.1612,4.7636 c 0.4713,0.8312 0.95,1.6601 1.4373,2.4895 0.515,0.8758 1.035,1.7438 1.558,2.6045 l 7.3249,-2.8043 c 0.3148,0.3894 0.6395,0.771 0.9746,1.143 l -4.1596,6.526 c 0.73,0.6272 1.4681,1.2502 2.2129,1.8695 0.7885,0.6549 1.5765,1.3002 2.3662,1.9376 l 5.9265,-5.0567 c 0.4879,0.2986 0.9851,0.5833 1.4915,0.8529 l -1.603,7.524 c 0.9075,0.3425 1.8192,0.6783 2.7371,1.0094 0.971,0.3497 1.9382,0.6898 2.9048,1.022 l 3.7819,-6.745 c 0.573,0.1161 1.1521,0.2155 1.7367,0.2973 l 1.1619,7.6131 c 0.9715,0.0144 1.9467,0.0222 2.925,0.0222 1.0344,0 2.0632,-0.008 3.0871,-0.0222 l 1.1662,-7.6432 c 0.6099,-0.0897 1.2148,-0.1998 1.8106,-0.3268 l 3.8318,6.7746 c 0.9161,-0.3185 1.8316,-0.6435 2.7483,-0.9776 0.9703,-0.3533 1.9313,-0.7108 2.885,-1.0744 l -1.6523,-7.6202 c 0.5163,-0.2823 1.0233,-0.5803 1.518,-0.8921 l 6.0546,5.0862 c 0.7454,-0.6091 1.4884,-1.2261 2.2282,-1.8509 0.7831,-0.6609 1.5562,-1.3242 2.3214,-1.9899 l -4.2964,-6.6259 c 0.3296,-0.3768 0.6493,-0.762 0.9579,-1.1551 l 7.5098,2.7797 c 0.4885,-0.8217 0.9709,-1.6481 1.4489,-2.4823 0.5052,-0.8824 1.0005,-1.7631 1.4872,-2.6437 l -6.3676,-4.8105 c 0.1343,-0.3473 0.2612,-0.6982 0.3814,-1.0515 -0.003,0.0144 -0.006,0.0289 -0.009,0.0433 l 8.0469,0.2251 c 0.1854,-0.9329 0.3647,-1.8689 0.5366,-2.8091 0.1817,-0.9956 0.3542,-1.9863 0.5199,-2.9741 l -7.6397,-2.5124 c -0.01,0.0602 -0.0191,0.1204 -0.0283,0.1806 0.01,-0.3004 0.0147,-0.6025 0.0147,-0.9047 0,-0.4839 -0.0123,-0.9642 -0.0375,-1.4422 l 7.6212,-2.1843 c -0.1133,-0.759 -0.2347,-1.5199 -0.3641,-2.2843 -0.1207,-0.7187 -0.2507,-1.441 -0.3826,-2.1506 l -7.9551,0.3292 c -0.3388,-1.1442 -0.751,-2.2584 -1.2315,-3.3376 l 6.3762,-4.6667 c -0.3776,-0.6723 -0.7633,-1.3435 -1.1588,-2.0158 -0.3715,-0.632 -0.7516,-1.2628 -1.1299,-1.8828 l -7.36,3.0397 c -0.6438,-0.8475 -1.3356,-1.6577 -2.0712,-2.4275 l 4.4024,-6.517 c -0.5877,-0.508 -1.1835,-1.0118 -1.7878,-1.5138 -0.5674,-0.4725 -1.144,-0.9414 -1.7139,-1.4001 l -5.871,5.2849 c -0.9549,-0.6284 -1.9492,-1.2027 -2.9805,-1.7167 l 1.8297,-7.5769 c -0.7313,-0.2787 -1.4681,-0.5514 -2.2129,-0.8198 -0.6998,-0.2516 -1.4058,-0.4984 -2.102,-0.7368 z m 7.1604,25.0674 c -0.897,-6.0745 -5.8883,-10.8838 -12.1357,-11.6591 v -7.232 c 10.3072,0.8336 18.584,8.8511 19.5487,18.8911 z M 189.056,407.5708 v 7.2549 c -6.1199,0.9498 -10.9448,5.7856 -11.7322,11.8228 h -7.4037 c 0.8477,-10.0044 8.9531,-18.0508 19.1359,-19.0777 z m -19.0977,22.9709 h 7.4272 c 0.9622,5.9169 5.8155,10.5961 11.9022,11.44 v 7.2459 c -10.1496,-0.9149 -18.2871,-8.7988 -19.3294,-18.6859 z m 23.314,18.6823 v -7.2459 c 6.1514,-0.8643 11.0379,-5.6472 11.9103,-11.6615 h 7.4099 c -0.9395,9.9822 -9.1078,17.9744 -19.3202,18.9074 z m -2.0071,-28.5164 c 4.3297,0 7.8591,3.449 7.8591,7.6793 0,4.229 -3.5294,7.6792 -7.8591,7.6792 -4.3272,0 -7.8584,-3.4502 -7.8584,-7.6792 0,-4.2303 3.5312,-7.6793 7.8584,-7.6793 z"
       style="fill:#b1b3b4;fill-rule:evenodd;stroke:#1b1918;stroke-width:3.1012;stroke-linecap:butt;stroke-linejoin:miter;stroke-dasharray:none"
       id="path345" />
    <path
       d="m 261.3623,405.6835 c -0.6312,-0.1525 -1.2766,-0.268 -1.9344,-0.3437 l -0.5375,-4.3015 c -0.439,-0.008 -0.8797,-0.0122 -1.3235,-0.0122 -0.4169,0 -0.8362,0.004 -1.2494,0.0105 l -0.5361,4.2894 c -0.683,0.074 -1.3532,0.1902 -2.0075,0.3464 l -2.0302,-3.8258 c -0.4145,0.1417 -0.829,0.2885 -1.2449,0.44 -0.3904,0.1424 -0.7822,0.2895 -1.1667,0.4363 l 1.0268,4.1827 c -0.6078,0.3009 -1.1939,0.6386 -1.7545,1.0103 l -3.2566,-2.8852 c -0.338,0.2744 -0.6739,0.5528 -1.0095,0.8366 -0.3157,0.266 -0.6299,0.5373 -0.9386,0.806 l 2.4443,3.5564 c -0.4352,0.4575 -0.8431,0.9407 -1.2204,1.4463 l -4.0477,-1.6186 c -0.2219,0.3703 -0.4403,0.744 -0.6567,1.1227 -0.2037,0.3555 -0.4049,0.7154 -0.6006,1.0703 l 3.5125,2.5101 c -0.2219,0.5087 -0.4166,1.0312 -0.583,1.5658 l -4.3312,-0.233 c -0.0858,0.4205 -0.1675,0.8437 -0.2453,1.2706 -0.0731,0.4013 -0.1427,0.8053 -0.2088,1.2035 l 4.1355,1.2416 c -0.0235,0.3438 -0.0355,0.6905 -0.0355,1.04 0,0.0787 7e-4,0.1575 0.002,0.236 l -4.1896,1.3193 c 0.0803,0.5259 0.1644,1.0518 0.254,1.5793 0.0944,0.5578 0.1922,1.1116 0.2946,1.6624 l 4.3905,-0.0677 c 0.1085,0.3317 0.2277,0.6589 0.358,0.9804 l -3.446,2.6643 c 0.2635,0.4649 0.5313,0.9285 0.8038,1.3924 0.2881,0.4899 0.5789,0.9753 0.8714,1.4568 l 4.097,-1.5685 c 0.176,0.2178 0.3576,0.4312 0.5451,0.6393 l -2.3266,3.65 c 0.4084,0.3508 0.8211,0.6993 1.2377,1.0457 0.4411,0.3663 0.8818,0.7272 1.3235,1.0837 l 3.3148,-2.8283 c 0.2729,0.167 0.5509,0.3263 0.8342,0.4771 l -0.8966,4.2082 c 0.5075,0.1916 1.0175,0.3794 1.5309,0.5646 0.543,0.1956 1.084,0.3858 1.6246,0.5716 l 2.1153,-3.7726 c 0.3205,0.065 0.6444,0.1206 0.9714,0.1664 l 0.6498,4.258 c 0.5434,0.008 1.0889,0.0125 1.636,0.0125 0.5786,0 1.154,-0.004 1.7267,-0.0125 l 0.6522,-4.2749 c 0.3412,-0.0501 0.6795,-0.1118 1.0127,-0.1828 l 2.1432,3.7891 c 0.5124,-0.1781 1.0244,-0.3599 1.5372,-0.5467 0.5427,-0.1976 1.0802,-0.3976 1.6136,-0.601 L 265.32,434.489 c 0.2888,-0.1579 0.5724,-0.3245 0.8491,-0.4989 l 3.3864,2.8448 c 0.4169,-0.3407 0.8324,-0.6858 1.2463,-1.0352 0.4379,-0.3697 0.8704,-0.7407 1.2983,-1.113 l -2.403,-3.706 c 0.1843,-0.2107 0.3632,-0.4262 0.5358,-0.646 l 4.2003,1.5547 c 0.2732,-0.4596 0.543,-0.9218 0.8104,-1.3884 0.2825,-0.4936 0.5596,-0.9861 0.8318,-1.4786 l -3.5615,-2.6906 c 0.0752,-0.1943 0.1461,-0.3905 0.2133,-0.5882 -0.002,0.008 -0.003,0.0162 -0.005,0.0243 l 4.5007,0.1259 c 0.1038,-0.5218 0.204,-1.0453 0.3002,-1.5712 0.1016,-0.5568 0.1981,-1.111 0.2908,-1.6634 l -4.273,-1.4052 c -0.005,0.0336 -0.0107,0.0673 -0.0159,0.101 0.006,-0.168 0.008,-0.337 0.008,-0.506 0,-0.2707 -0.007,-0.5394 -0.021,-0.8067 l 4.2626,-1.2217 c -0.0634,-0.4245 -0.1312,-0.8501 -0.2036,-1.2776 -0.0675,-0.402 -0.1402,-0.806 -0.214,-1.2029 l -4.4494,0.1841 c -0.1895,-0.6399 -0.42,-1.2631 -0.6888,-1.8667 l 3.5663,-2.6101 c -0.2112,-0.3761 -0.4269,-0.7515 -0.6481,-1.1275 -0.2078,-0.3535 -0.4204,-0.7063 -0.632,-1.0531 l -4.1165,1.7001 c -0.3601,-0.474 -0.747,-0.9271 -1.1585,-1.3577 l 2.4623,-3.645 c -0.3287,-0.2842 -0.6619,-0.5659 -0.9999,-0.8467 -0.3174,-0.2643 -0.6399,-0.5265 -0.9586,-0.7831 l -3.2837,2.9559 c -0.5341,-0.3515 -1.0902,-0.6727 -1.667,-0.9602 l 1.0233,-4.2378 c -0.409,-0.1559 -0.8211,-0.3084 -1.2377,-0.4586 -0.3914,-0.1407 -0.7863,-0.2787 -1.1756,-0.412 z m 4.0049,14.0205 c -0.5016,-3.3976 -3.2933,-6.0875 -6.7876,-6.5211 v -4.045 c 5.765,0.4663 10.3942,4.9506 10.9338,10.5661 z m -9.0163,-10.5445 v 4.0577 c -3.4229,0.5313 -6.1216,3.236 -6.5619,6.6127 h -4.141 c 0.4741,-5.5956 5.0076,-10.0961 10.7029,-10.6704 z m -10.6816,12.8479 h 4.1541 c 0.5383,3.3094 3.2528,5.9266 6.6571,6.3985 v 4.0527 c -5.6768,-0.5117 -10.2282,-4.9212 -10.8112,-10.4512 z m 13.0399,10.4492 v -4.0527 c 3.4405,-0.4834 6.1736,-3.1585 6.6615,-6.5224 h 4.1445 c -0.5255,5.5831 -5.0941,10.0533 -10.806,10.5751 z m -1.1226,-15.9495 c 2.4216,0 4.3956,1.929 4.3956,4.2951 0,2.3653 -1.974,4.2951 -4.3956,4.2951 -2.4203,0 -4.3954,-1.9298 -4.3954,-4.2951 0,-2.3661 1.9751,-4.2951 4.3954,-4.2951 z"
       style="fill:#b1b3b4;fill-rule:evenodd;stroke:#1b1918;stroke-width:2.3248;stroke-linecap:butt;stroke-linejoin:miter;stroke-dasharray:none"
       id="path347" />
    <path
       d="m 244.7905,446.8677 c -0.7144,-0.1726 -1.4448,-0.3032 -2.1892,-0.389 l -0.6083,-4.8679 c -0.4967,-0.009 -0.9955,-0.0137 -1.4977,-0.0137 -0.4719,0 -0.9464,0.005 -1.4139,0.0118 l -0.6068,4.8542 c -0.7729,0.0838 -1.5313,0.2153 -2.2718,0.3921 l -2.2975,-4.3296 c -0.4691,0.1604 -0.9382,0.3265 -1.4089,0.4979 -0.4418,0.1612 -0.8851,0.3277 -1.3203,0.4938 l 1.162,4.7334 c -0.6878,0.3406 -1.3511,0.7228 -1.9856,1.1434 l -3.6853,-3.2651 c -0.3825,0.3105 -0.7627,0.6256 -1.1425,0.9467 -0.3572,0.301 -0.7128,0.6081 -1.0622,0.9121 l 2.7662,4.0248 c -0.4925,0.5178 -0.9542,1.0645 -1.3811,1.6367 l -4.5807,-1.8318 c -0.2511,0.4191 -0.4983,0.842 -0.7432,1.2706 -0.2305,0.4024 -0.4582,0.8096 -0.6797,1.2112 l 3.9751,2.8407 c -0.2511,0.5756 -0.4714,1.1669 -0.6598,1.772 l -4.9015,-0.2637 c -0.0971,0.4759 -0.1895,0.9548 -0.2777,1.4379 -0.0826,0.4541 -0.1614,0.9113 -0.2363,1.362 l 4.6801,1.4051 c -0.0265,0.389 -0.0402,0.7814 -0.0402,1.1769 0,0.0891 8e-4,0.1783 0.002,0.267 l -4.7413,1.4931 c 0.0908,0.5951 0.186,1.1903 0.2874,1.7873 0.1068,0.6313 0.2175,1.258 0.3334,1.8813 l 4.9686,-0.0766 c 0.1228,0.3753 0.2577,0.7456 0.4051,1.1095 l -3.8998,3.0151 c 0.2983,0.5262 0.6013,1.0508 0.9098,1.5758 0.326,0.5543 0.6551,1.1037 0.9861,1.6485 l 4.6364,-1.775 c 0.1993,0.2465 0.4048,0.488 0.6169,0.7235 l -2.6329,4.1307 c 0.4621,0.397 0.9293,0.7913 1.4007,1.1833 0.4991,0.4146 0.9978,0.823 1.4977,1.2264 l 3.7513,-3.2007 c 0.3088,0.189 0.6235,0.3692 0.944,0.5399 l -1.0146,4.7624 c 0.5744,0.2168 1.1515,0.4294 1.7325,0.6389 0.6145,0.2214 1.2268,0.4366 1.8386,0.6469 l 2.3938,-4.2693 c 0.3627,0.0735 0.7292,0.1363 1.0993,0.1882 l 0.7354,4.8187 c 0.6149,0.009 1.2322,0.0141 1.8514,0.0141 0.6547,0 1.3059,-0.005 1.954,-0.0141 l 0.7382,-4.8378 c 0.386,-0.0568 0.7689,-0.1265 1.146,-0.2069 l 2.4254,4.2881 c 0.5799,-0.2016 1.1593,-0.4073 1.7396,-0.6188 0.6141,-0.2236 1.2224,-0.4499 1.826,-0.68 l -1.0458,-4.8233 c 0.3268,-0.1787 0.6477,-0.3673 0.9608,-0.5647 l 3.8324,3.2194 c 0.4718,-0.3856 0.9421,-0.7761 1.4104,-1.1716 0.4956,-0.4183 0.985,-0.8381 1.4693,-1.2595 l -2.7195,-4.1939 c 0.2087,-0.2385 0.411,-0.4824 0.6064,-0.7312 l 4.7534,1.7594 c 0.3092,-0.52 0.6145,-1.0431 0.9171,-1.5712 0.3198,-0.5585 0.6333,-1.1159 0.9413,-1.6733 l -4.0304,-3.0448 c 0.085,-0.2199 0.1653,-0.442 0.2414,-0.6656 -0.002,0.009 -0.004,0.0183 -0.005,0.0274 l 5.0934,0.1425 c 0.1174,-0.5905 0.2309,-1.183 0.3396,-1.7781 0.1151,-0.6301 0.2243,-1.2572 0.3292,-1.8824 l -4.8357,-1.5903 c -0.006,0.0381 -0.0121,0.0762 -0.0179,0.1143 0.006,-0.1901 0.009,-0.3814 0.009,-0.5726 0,-0.3063 -0.008,-0.6104 -0.0238,-0.9129 l 4.824,-1.3826 c -0.0718,-0.4804 -0.1486,-0.962 -0.2305,-1.4459 -0.0764,-0.4549 -0.1587,-0.912 -0.2421,-1.3612 l -5.0353,0.2084 c -0.2145,-0.7243 -0.4754,-1.4295 -0.7795,-2.1126 l 4.0359,-2.9538 c -0.2391,-0.4256 -0.4832,-0.8504 -0.7335,-1.276 -0.2351,-0.4 -0.4757,-0.7993 -0.7152,-1.1917 l -4.6586,1.924 c -0.4075,-0.5364 -0.8454,-1.0492 -1.3109,-1.5365 l 2.7865,-4.125 c -0.372,-0.3216 -0.7491,-0.6405 -1.1316,-0.9582 -0.3592,-0.2991 -0.7242,-0.5959 -1.0849,-0.8862 l -3.7161,3.3451 c -0.6044,-0.3977 -1.2338,-0.7612 -1.8865,-1.0866 l 1.1581,-4.7959 c -0.4629,-0.1764 -0.9292,-0.349 -1.4007,-0.5189 -0.4429,-0.1592 -0.8898,-0.3154 -1.3304,-0.4663 z m 4.5322,15.8667 c -0.5677,-3.8449 -3.727,-6.889 -7.6814,-7.3797 v -4.5776 c 6.5241,0.5276 11.7629,5.6024 12.3736,11.9573 z m -10.2035,-11.933 v 4.5921 c -3.8737,0.6012 -6.9277,3.6621 -7.426,7.4834 h -4.6863 c 0.5365,-6.3324 5.667,-11.4255 12.1123,-12.0755 z m -12.0882,14.5398 h 4.7011 c 0.6091,3.7451 3.6811,6.7069 7.5337,7.241 v 4.5864 c -6.4243,-0.5791 -11.575,-5.5693 -12.2348,-11.8274 z m 14.7569,11.8251 V 472.58 c 3.8936,-0.5471 6.9866,-3.5745 7.5387,-7.3813 h 4.6902 c -0.5946,6.3183 -5.7648,11.3771 -12.2289,11.9676 z m -1.2704,-18.0498 c 2.7405,0 4.9745,2.1831 4.9745,4.8607 0,2.6768 -2.234,4.8607 -4.9745,4.8607 -2.7389,0 -4.9741,-2.1839 -4.9741,-4.8607 0,-2.6776 2.2352,-4.8607 4.9741,-4.8607 z"
       style="fill:#b1b3b4;fill-rule:evenodd;stroke:#1b1918;stroke-width:2.3248;stroke-linecap:butt;stroke-linejoin:miter;stroke-dasharray:none"
       id="path349" />
    <path
       d="m 657.4183,401.356 c 1.1286,-0.2727 2.2825,-0.4791 3.4585,-0.6146 l 0.9611,-7.6906 c 0.7848,-0.0145 1.5728,-0.0217 2.3663,-0.0217 0.7454,0 1.4951,0.008 2.2338,0.0186 l 0.9586,7.6691 c 1.221,0.1324 2.4192,0.34 3.5891,0.6193 l 3.6298,-6.8401 c 0.7411,0.2534 1.4822,0.5158 2.2258,0.7867 0.698,0.2546 1.3985,0.5176 2.086,0.78 l -1.8359,7.4783 c 1.0868,0.5381 2.1347,1.1418 3.137,1.8063 l 5.8224,-5.1584 c 0.6043,0.4905 1.205,0.9883 1.805,1.4957 0.5643,0.4756 1.1262,0.9607 1.6781,1.441 l -4.3703,6.3587 c 0.7781,0.818 1.5075,1.6817 2.1821,2.5858 l 7.2368,-2.894 c 0.3968,0.6621 0.7874,1.3302 1.1742,2.0074 0.3641,0.6356 0.7239,1.2791 1.0738,1.9135 l -6.2801,4.4879 c 0.3968,0.9095 0.7449,1.8436 1.0424,2.7995 l 7.7438,-0.4165 c 0.1534,0.7517 0.2995,1.5084 0.4387,2.2716 0.1306,0.7175 0.255,1.4398 0.3733,2.1518 l -7.3939,2.2199 c 0.0419,0.6146 0.0634,1.2345 0.0634,1.8593 0,0.1409 -10e-4,0.2817 -0.004,0.422 l 7.4906,2.3589 c -0.1436,0.9402 -0.2939,1.8804 -0.454,2.8236 -0.1688,0.9973 -0.3438,1.9875 -0.5268,2.9722 l -7.8498,-0.121 c -0.194,0.5929 -0.4072,1.178 -0.6401,1.7528 l 6.1612,4.7636 c -0.4713,0.8312 -0.9499,1.6601 -1.4372,2.4895 -0.5151,0.8758 -1.035,1.7438 -1.558,2.6045 l -7.325,-2.8043 c -0.3148,0.3894 -0.6394,0.771 -0.9746,1.143 l 4.1597,6.526 c -0.7301,0.6272 -1.4681,1.2502 -2.2129,1.8695 -0.7886,0.6549 -1.5765,1.3002 -2.3663,1.9376 l -5.9265,-5.0567 c -0.4879,0.2986 -0.985,0.5833 -1.4914,0.8529 l 1.6029,7.524 c -0.9074,0.3425 -1.8192,0.6783 -2.7371,1.0094 -0.9709,0.3497 -1.9381,0.6898 -2.9047,1.022 l -3.782,-6.745 c -0.5729,0.1161 -1.152,0.2155 -1.7366,0.2973 l -1.1619,7.6131 c -0.9715,0.0144 -1.9468,0.0222 -2.9251,0.0222 -1.0343,0 -2.0631,-0.008 -3.087,-0.0222 l -1.1662,-7.6432 c -0.6099,-0.0897 -1.2149,-0.1998 -1.8106,-0.3268 l -3.8319,6.7746 c -0.9161,-0.3185 -1.8315,-0.6435 -2.7482,-0.9776 -0.9703,-0.3533 -1.9314,-0.7108 -2.885,-1.0744 l 1.6523,-7.6202 c -0.5163,-0.2823 -1.0233,-0.5803 -1.518,-0.8921 l -6.0546,5.0862 c -0.7454,-0.6091 -1.4884,-1.2261 -2.2283,-1.8509 -0.783,-0.6609 -1.5562,-1.3242 -2.3213,-1.9899 l 4.2964,-6.6259 c -0.3296,-0.3768 -0.6493,-0.762 -0.958,-1.1551 l -7.5097,2.7797 c -0.4886,-0.8217 -0.9709,-1.6481 -1.449,-2.4823 -0.5052,-0.8824 -1.0005,-1.7631 -1.4871,-2.6437 l 6.3675,-4.8105 c -0.1343,-0.3473 -0.2612,-0.6982 -0.3813,-1.0515 0.003,0.0144 0.006,0.0289 0.009,0.0433 l -8.0469,0.2251 c -0.1855,-0.9329 -0.3647,-1.8689 -0.5366,-2.8091 -0.1818,-0.9956 -0.3543,-1.9863 -0.52,-2.9741 l 7.6397,-2.5124 c 0.01,0.0602 0.0191,0.1204 0.0284,0.1806 -0.01,-0.3004 -0.0148,-0.6025 -0.0148,-0.9047 0,-0.4839 0.0123,-0.9642 0.0376,-1.4422 l -7.6213,-2.1843 c 0.1134,-0.759 0.2348,-1.5199 0.3641,-2.2843 0.1208,-0.7187 0.2508,-1.441 0.3826,-2.1506 l 7.9551,0.3292 c 0.3389,-1.1442 0.751,-2.2584 1.2315,-3.3376 l -6.3761,-4.6667 c 0.3776,-0.6723 0.7632,-1.3435 1.1588,-2.0158 0.3714,-0.632 0.7515,-1.2628 1.1298,-1.8828 l 7.36,3.0397 c 0.6438,-0.8475 1.3356,-1.6577 2.0712,-2.4275 l -4.4023,-6.517 c 0.5877,-0.508 1.1834,-1.0118 1.7878,-1.5138 0.5674,-0.4725 1.144,-0.9414 1.7138,-1.4001 l 5.8711,5.2849 c 0.9549,-0.6284 1.9492,-1.2027 2.9805,-1.7167 l -1.8297,-7.5769 c 0.7312,-0.2787 1.468,-0.5514 2.2128,-0.8198 0.6999,-0.2516 1.4059,-0.4984 2.102,-0.7368 z m -7.1604,25.0674 c 0.8969,-6.0745 5.8882,-10.8838 12.1357,-11.6591 v -7.232 c -10.3073,0.8336 -18.584,8.8511 -19.5488,18.8911 z m 16.1203,-18.8526 v 7.2549 c 6.1199,0.9498 10.9449,5.7856 11.7322,11.8228 h 7.4038 c -0.8477,-10.0044 -8.9532,-18.0508 -19.136,-19.0777 z m 19.0978,22.9709 h -7.4272 c -0.9623,5.9169 -5.8156,10.5961 -11.9022,11.44 v 7.2459 c 10.1495,-0.9149 18.287,-8.7988 19.3294,-18.6859 z m -23.3141,18.6823 v -7.2459 c -6.1513,-0.8643 -11.0379,-5.6472 -11.9102,-11.6615 h -7.4099 c 0.9394,9.9822 9.1077,17.9744 19.3201,18.9074 z m 2.0071,-28.5164 c -4.3296,0 -7.859,3.449 -7.859,7.6793 0,4.229 3.5294,7.6792 7.859,7.6792 4.3272,0 7.8585,-3.4502 7.8585,-7.6792 0,-4.2303 -3.5313,-7.6793 -7.8585,-7.6793 z"
       style="fill:#b1b3b4;fill-rule:evenodd;stroke:#1b1918;stroke-width:3.1012;stroke-linecap:butt;stroke-linejoin:miter;stroke-dasharray:none"
       id="path351" />
    <path
       d="m 594.0719,405.6835 c 0.6313,-0.1525 1.2766,-0.268 1.9344,-0.3437 l 0.5375,-4.3015 c 0.439,-0.008 0.8797,-0.0122 1.3235,-0.0122 0.417,0 0.8363,0.004 1.2494,0.0105 l 0.5362,4.2894 c 0.6829,0.074 1.3531,0.1902 2.0074,0.3464 l 2.0302,-3.8258 c 0.4145,0.1417 0.8291,0.2885 1.245,0.44 0.3904,0.1424 0.7821,0.2895 1.1667,0.4363 l -1.0268,4.1827 c 0.6078,0.3009 1.1939,0.6386 1.7545,1.0103 l 3.2565,-2.8852 c 0.338,0.2744 0.674,0.5528 1.0096,0.8366 0.3156,0.266 0.6299,0.5373 0.9386,0.806 l -2.4444,3.5564 c 0.4352,0.4575 0.8432,0.9407 1.2205,1.4463 l 4.0476,-1.6186 c 0.2219,0.3703 0.4404,0.744 0.6568,1.1227 0.2036,0.3555 0.4048,0.7154 0.6006,1.0703 l -3.5126,2.5101 c 0.2219,0.5087 0.4166,1.0312 0.583,1.5658 l 4.3313,-0.233 c 0.0858,0.4205 0.1674,0.8437 0.2453,1.2706 0.073,0.4013 0.1426,0.8053 0.2088,1.2035 l -4.1355,1.2416 c 0.0234,0.3438 0.0355,0.6905 0.0355,1.04 0,0.0787 -7e-4,0.1575 -0.002,0.236 l 4.1896,1.3193 c -0.0803,0.5259 -0.1643,1.0518 -0.2539,1.5793 -0.0944,0.5578 -0.1923,1.1116 -0.2946,1.6624 l -4.3905,-0.0677 c -0.1086,0.3317 -0.2278,0.6589 -0.358,0.9804 l 3.446,2.6643 c -0.2636,0.4649 -0.5313,0.9285 -0.8039,1.3924 -0.288,0.4899 -0.5789,0.9753 -0.8714,1.4568 l -4.0969,-1.5685 c -0.1761,0.2178 -0.3577,0.4312 -0.5451,0.6393 l 2.3265,3.65 c -0.4083,0.3508 -0.8211,0.6993 -1.2377,1.0457 -0.441,0.3663 -0.8817,0.7272 -1.3235,1.0837 l -3.3147,-2.8283 c -0.2729,0.167 -0.551,0.3263 -0.8342,0.4771 l 0.8966,4.2082 c -0.5076,0.1916 -1.0175,0.3794 -1.531,0.5646 -0.543,0.1956 -1.084,0.3858 -1.6246,0.5716 l -2.1153,-3.7726 c -0.3204,0.065 -0.6443,0.1206 -0.9713,0.1664 l -0.6499,4.258 c -0.5434,0.008 -1.0888,0.0125 -1.636,0.0125 -0.5785,0 -1.154,-0.004 -1.7266,-0.0125 l -0.6523,-4.2749 c -0.3411,-0.0501 -0.6795,-0.1118 -1.0127,-0.1828 l -2.1432,3.7891 c -0.5124,-0.1781 -1.0244,-0.3599 -1.5371,-0.5467 -0.5427,-0.1976 -1.0802,-0.3976 -1.6136,-0.601 l 0.9241,-4.2621 c -0.2887,-0.1579 -0.5723,-0.3245 -0.849,-0.4989 l -3.3864,2.8448 c -0.4169,-0.3407 -0.8325,-0.6858 -1.2463,-1.0352 -0.438,-0.3697 -0.8704,-0.7407 -1.2984,-1.113 l 2.4031,-3.706 c -0.1844,-0.2107 -0.3632,-0.4262 -0.5358,-0.646 l -4.2003,1.5547 c -0.2733,-0.4596 -0.5431,-0.9218 -0.8105,-1.3884 -0.2825,-0.4936 -0.5595,-0.9861 -0.8317,-1.4786 l 3.5614,-2.6906 c -0.0751,-0.1943 -0.1461,-0.3905 -0.2133,-0.5882 0.002,0.008 0.004,0.0162 0.005,0.0243 l -4.5008,0.1259 c -0.1037,-0.5218 -0.204,-1.0453 -0.3001,-1.5712 -0.1017,-0.5568 -0.1981,-1.111 -0.2908,-1.6634 l 4.273,-1.4052 c 0.005,0.0336 0.0106,0.0673 0.0158,0.101 -0.005,-0.168 -0.008,-0.337 -0.008,-0.506 0,-0.2707 0.007,-0.5394 0.0211,-0.8067 l -4.2627,-1.2217 c 0.0634,-0.4245 0.1313,-0.8501 0.2036,-1.2776 0.0676,-0.402 0.1403,-0.806 0.214,-1.2029 l 4.4494,0.1841 c 0.1895,-0.6399 0.4201,-1.2631 0.6888,-1.8667 l -3.5663,-2.6101 c 0.2113,-0.3761 0.427,-0.7515 0.6482,-1.1275 0.2077,-0.3535 0.4203,-0.7063 0.6319,-1.0531 l 4.1166,1.7001 c 0.36,-0.474 0.747,-0.9271 1.1584,-1.3577 l -2.4623,-3.645 c 0.3287,-0.2842 0.6619,-0.5659 1,-0.8467 0.3173,-0.2643 0.6398,-0.5265 0.9585,-0.7831 l 3.2838,2.9559 c 0.5341,-0.3515 1.0902,-0.6727 1.667,-0.9602 l -1.0234,-4.2378 c 0.409,-0.1559 0.8211,-0.3084 1.2377,-0.4586 0.3915,-0.1407 0.7863,-0.2787 1.1757,-0.412 z m -4.0049,14.0205 c 0.5017,-3.3976 3.2934,-6.0875 6.7876,-6.5211 v -4.045 c -5.7649,0.4663 -10.3942,4.9506 -10.9338,10.5661 z m 9.0163,-10.5445 v 4.0577 c 3.423,0.5313 6.1216,3.236 6.562,6.6127 h 4.141 c -0.4741,-5.5956 -5.0076,-10.0961 -10.703,-10.6704 z m 10.6816,12.8479 h -4.1541 c -0.5382,3.3094 -3.2527,5.9266 -6.657,6.3985 v 4.0527 c 5.6767,-0.5117 10.2281,-4.9212 10.8111,-10.4512 z m -13.0398,10.4492 v -4.0527 c -3.4405,-0.4834 -6.1736,-3.1585 -6.6615,-6.5224 h -4.1445 c 0.5255,5.5831 5.0941,10.0533 10.806,10.5751 z m 1.1226,-15.9495 c -2.4216,0 -4.3957,1.929 -4.3957,4.2951 0,2.3653 1.9741,4.2951 4.3957,4.2951 2.4202,0 4.3953,-1.9298 4.3953,-4.2951 0,-2.3661 -1.9751,-4.2951 -4.3953,-4.2951 z"
       style="fill:#b1b3b4;fill-rule:evenodd;stroke:#1b1918;stroke-width:2.3248;stroke-linecap:butt;stroke-linejoin:miter;stroke-dasharray:none"
       id="path353" />
    <path
       d="m 610.6438,446.8677 c 0.7144,-0.1726 1.4447,-0.3032 2.1891,-0.389 l 0.6083,-4.8679 c 0.4968,-0.009 0.9955,-0.0137 1.4978,-0.0137 0.4718,0 0.9464,0.005 1.4139,0.0118 l 0.6067,4.8542 c 0.7729,0.0838 1.5313,0.2153 2.2718,0.3921 l 2.2976,-4.3296 c 0.4691,0.1604 0.9382,0.3265 1.4088,0.4979 0.4418,0.1612 0.8852,0.3277 1.3204,0.4938 l -1.1621,4.7334 c 0.6879,0.3406 1.3512,0.7228 1.9856,1.1434 l 3.6853,-3.2651 c 0.3826,0.3105 0.7628,0.6256 1.1426,0.9467 0.3571,0.301 0.7128,0.6081 1.0622,0.9121 l -2.7663,4.0248 c 0.4925,0.5178 0.9542,1.0645 1.3812,1.6367 l 4.5806,-1.8318 c 0.2511,0.4191 0.4984,0.842 0.7432,1.2706 0.2305,0.4024 0.4582,0.8096 0.6797,1.2112 l -3.975,2.8407 c 0.2511,0.5756 0.4714,1.1669 0.6597,1.772 l 4.9016,-0.2637 c 0.0971,0.4759 0.1895,0.9548 0.2776,1.4379 0.0827,0.4541 0.1615,0.9113 0.2363,1.362 l -4.68,1.4051 c 0.0265,0.389 0.0401,0.7814 0.0401,1.1769 0,0.0891 -7e-4,0.1783 -0.002,0.267 l 4.7413,1.4931 c -0.0909,0.5951 -0.186,1.1903 -0.2874,1.7873 -0.1069,0.6313 -0.2176,1.258 -0.3334,1.8813 l -4.9686,-0.0766 c -0.1229,0.3753 -0.2578,0.7456 -0.4052,1.1095 l 3.8998,3.0151 c -0.2983,0.5262 -0.6013,1.0508 -0.9097,1.5758 -0.326,0.5543 -0.6551,1.1037 -0.9862,1.6485 l -4.6364,-1.775 c -0.1992,0.2465 -0.4047,0.488 -0.6168,0.7235 l 2.6328,4.1307 c -0.4621,0.397 -0.9292,0.7913 -1.4006,1.1833 -0.4992,0.4146 -0.9979,0.823 -1.4978,1.2264 l -3.7512,-3.2007 c -0.3089,0.189 -0.6235,0.3692 -0.9441,0.5399 l 1.0147,4.7624 c -0.5744,0.2168 -1.1515,0.4294 -1.7325,0.6389 -0.6146,0.2214 -1.2268,0.4366 -1.8386,0.6469 l -2.3939,-4.2693 c -0.3626,0.0735 -0.7291,0.1363 -1.0992,0.1882 l -0.7354,4.8187 c -0.615,0.009 -1.2322,0.0141 -1.8515,0.0141 -0.6547,0 -1.3059,-0.005 -1.954,-0.0141 l -0.7381,-4.8378 c -0.3861,-0.0568 -0.769,-0.1265 -1.146,-0.2069 l -2.4255,4.2881 c -0.5798,-0.2016 -1.1593,-0.4073 -1.7395,-0.6188 -0.6142,-0.2236 -1.2225,-0.4499 -1.8261,-0.68 l 1.0458,-4.8233 c -0.3267,-0.1787 -0.6477,-0.3673 -0.9608,-0.5647 l -3.8323,3.2194 c -0.4718,-0.3856 -0.9421,-0.7761 -1.4104,-1.1716 -0.4956,-0.4183 -0.985,-0.8381 -1.4693,-1.2595 l 2.7194,-4.1939 c -0.2086,-0.2385 -0.411,-0.4824 -0.6063,-0.7312 l -4.7534,1.7594 c -0.3092,-0.52 -0.6146,-1.0431 -0.9172,-1.5712 -0.3197,-0.5585 -0.6332,-1.1159 -0.9413,-1.6733 l 4.0305,-3.0448 c -0.0851,-0.2199 -0.1654,-0.442 -0.2414,-0.6656 0.002,0.009 0.004,0.0183 0.005,0.0274 l -5.0934,0.1425 c -0.1173,-0.5905 -0.2308,-1.183 -0.3396,-1.7781 -0.115,-0.6301 -0.2242,-1.2572 -0.3291,-1.8824 l 4.8356,-1.5903 c 0.006,0.0381 0.0121,0.0762 0.018,0.1143 -0.006,-0.1901 -0.009,-0.3814 -0.009,-0.5726 0,-0.3063 0.008,-0.6104 0.0238,-0.9129 l -4.8239,-1.3826 c 0.0717,-0.4804 0.1485,-0.962 0.2304,-1.4459 0.0764,-0.4549 0.1587,-0.912 0.2422,-1.3612 l 5.0353,0.2084 c 0.2144,-0.7243 0.4753,-1.4295 0.7795,-2.1126 l -4.0359,-2.9538 c 0.239,-0.4256 0.4831,-0.8504 0.7335,-1.276 0.2351,-0.4 0.4757,-0.7993 0.7151,-1.1917 l 4.6586,1.924 c 0.4075,-0.5364 0.8454,-1.0492 1.311,-1.5365 l -2.7865,-4.125 c 0.372,-0.3216 0.7491,-0.6405 1.1316,-0.9582 0.3591,-0.2991 0.7241,-0.5959 1.0848,-0.8862 l 3.7161,3.3451 c 0.6044,-0.3977 1.2338,-0.7612 1.8866,-1.0866 l -1.1582,-4.7959 c 0.4629,-0.1764 0.9293,-0.349 1.4007,-0.5189 0.443,-0.1592 0.8899,-0.3154 1.3305,-0.4663 z m -4.5323,15.8667 c 0.5678,-3.8449 3.7271,-6.889 7.6814,-7.3797 v -4.5776 c -6.5241,0.5276 -11.7629,5.6024 -12.3735,11.9573 z m 10.2036,-11.933 v 4.5921 c 3.8736,0.6012 6.9277,3.6621 7.426,7.4834 h 4.6863 c -0.5366,-6.3324 -5.667,-11.4255 -12.1123,-12.0755 z m 12.0881,14.5398 h -4.7011 c -0.6091,3.7451 -3.681,6.7069 -7.5336,7.241 v 4.5864 c 6.4242,-0.5791 11.5749,-5.5693 12.2347,-11.8274 z m -14.7569,11.8251 V 472.58 c -3.8935,-0.5471 -6.9865,-3.5745 -7.5387,-7.3813 h -4.6902 c 0.5947,6.3183 5.7649,11.3771 12.2289,11.9676 z m 1.2704,-18.0498 c -2.7405,0 -4.9744,2.1831 -4.9744,4.8607 0,2.6768 2.2339,4.8607 4.9744,4.8607 2.739,0 4.9741,-2.1839 4.9741,-4.8607 0,-2.6776 -2.2351,-4.8607 -4.9741,-4.8607 z"
       style="fill:#b1b3b4;fill-rule:evenodd;stroke:#1b1918;stroke-width:2.3248;stroke-linecap:butt;stroke-linejoin:miter;stroke-dasharray:none"
       id="path355" />
    <path
       d="m 558.4549,179.9935 v 264.7498 c 0,16.2403 -13.6044,29.533 -30.2268,29.533 h -82.6293 c -13.0715,4.5186 -21.2743,12.5632 -24.1285,24.4812 -2.1944,-12.5879 -9.8224,-21.034 -24.0083,-24.4812 h -82.1063 c -16.6243,0 -30.2268,-13.2897 -30.2268,-29.533 V 179.9935 Z"
       style="fill:none;stroke:#1b1918;stroke-width:2.325;stroke-linecap:butt;stroke-linejoin:miter;stroke-dasharray:none"
       id="path357" />
    <path
       d="m 126.5189,417.438 c 0,0 56.2786,62.3597 135.1739,79.8821 42.6041,11.3377 39.448,63.3902 39.448,63.3902 -10.07,4.9333 -143.5215,-36.0186 -206.1801,-112.3501 16.3052,2.061 34.1881,3.0921 34.1881,3.0921 0,0 -6.3121,-29.8912 -2.6299,-34.0143 z"
       style="fill:#e30016;fill-rule:evenodd;stroke:#1b1918;stroke-width:3.1012;stroke-linecap:butt;stroke-linejoin:miter;stroke-dasharray:none"
       id="path359" />
    <path
       d="m 233.5686,511.9924 67.0461,49.2332 14.7269,-22.676 c -24.6325,-20.4471 -50.1268,-33.6038 -81.773,-26.5572 z"
       style="fill:#9d1012;fill-rule:evenodd;stroke:#1b1918;stroke-width:3.1012;stroke-linecap:butt;stroke-linejoin:miter;stroke-dasharray:none"
       id="path361" />
    <path
       d="m 715.3708,417.438 c 0,0 -56.2787,62.3597 -135.174,79.8821 -42.6041,11.3377 -39.448,63.3902 -39.448,63.3902 10.0701,4.9333 143.5216,-36.0186 206.1801,-112.3501 -16.3052,2.061 -34.1881,3.0921 -34.1881,3.0921 0,0 6.3121,-29.8912 2.63,-34.0143 z"
       style="fill:#e30016;fill-rule:evenodd;stroke:#1b1918;stroke-width:3.1012;stroke-linecap:butt;stroke-linejoin:miter;stroke-dasharray:none"
       id="path363" />
    <path
       d="m 608.321,511.9924 -67.0461,49.2332 -14.7268,-22.676 c 24.6324,-20.4471 50.1267,-33.6038 81.7729,-26.5572 z"
       style="fill:#9d1012;fill-rule:evenodd;stroke:#1b1918;stroke-width:3.1012;stroke-linecap:butt;stroke-linejoin:miter;stroke-dasharray:none"
       id="path365" />
    <path
       d="m 420.9448,558.0047 c 0,0 98.7847,0 187.9824,-45.8696 l -19.6103,-39.0517 c 0,0 -82.4334,35.333 -168.3721,32.8537 C 335.0061,508.417 252.5734,473.084 252.5734,473.084 l -19.611,39.0517 c 89.1983,45.8702 187.9824,45.8696 187.9824,45.869 z"
       style="fill:#e30016;fill-rule:evenodd;stroke:#1b1918;stroke-width:3.1012;stroke-linecap:butt;stroke-linejoin:miter;stroke-dasharray:none"
       id="path367" />
    <path
       d="m 146.3331,479.6888 -2.4334,3.9082 -15.1027,-8.9559 c 1.0794,-1.3778 2.4446,-2.4883 4.0826,-3.328 1.6375,-0.8397 4.3494,-1.6372 8.1172,-2.3914 3.039,-0.6146 4.9753,-1.1081 5.8033,-1.4789 1.1311,-0.5183 1.964,-1.2026 2.4888,-2.0471 0.5816,-0.9372 0.775,-1.8148 0.573,-2.622 -0.2021,-0.8071 -0.7615,-1.4879 -1.6714,-2.0272 -0.8976,-0.5327 -1.7816,-0.691 -2.6386,-0.4791 -0.8569,0.2112 -1.7126,0.9149 -2.5566,2.094 l -4.0339,-2.9698 c 1.6917,-2.1657 3.5343,-3.3533 5.5044,-3.5592 1.9726,-0.21 3.9761,0.2847 5.9998,1.485 2.2197,1.3157 3.6015,2.9373 4.1411,4.855 0.5391,1.9183 0.2717,3.75 -0.8082,5.4883 -0.6136,0.9877 -1.3812,1.8202 -2.2948,2.5003 -0.918,0.6772 -2.0792,1.2707 -3.4715,1.7865 -0.9235,0.3365 -2.4476,0.7145 -4.5613,1.1244 -2.1162,0.4141 -3.4838,0.7109 -4.09,0.8963 -0.6068,0.186 -1.1496,0.4039 -1.6098,0.6494 z m 11.5079,12.1743 -4.308,-2.5545 9.8538,-15.8647 c -2.4686,0.505 -4.9882,0.4725 -7.5516,-0.1095 l 2.3712,-3.8186 c 1.3491,0.3094 2.9989,0.3491 4.934,0.1276 1.9418,-0.2227 3.5793,-0.8553 4.9007,-1.9045 l 3.4967,2.073 z m 19.2303,3.39 2.6145,-4.2092 8.4616,5.0176 -2.6146,4.2092 z m 18.3615,11.9517 4.443,2.0236 c -0.4133,0.8897 -0.5255,1.6631 -0.3443,2.3156 0.1805,0.6525 0.6283,1.1906 1.33,1.6065 0.889,0.5273 1.8956,0.5791 3.0107,0.1493 1.1157,-0.4298 2.5517,-1.8521 4.2859,-4.2658 -1.8438,0.5863 -3.5836,0.3949 -5.2075,-0.5682 -1.7669,-1.0473 -2.8789,-2.6177 -3.3329,-4.7088 -0.454,-2.0911 -0.0166,-4.2152 1.3104,-6.3514 1.3812,-2.2241 3.1751,-3.6205 5.3763,-4.1803 2.2012,-0.5604 4.3506,-0.2185 6.4433,1.0226 2.2764,1.3495 3.6144,3.3214 4.0056,5.909 0.3906,2.5883 -0.6382,5.8615 -3.0864,9.8035 -2.4938,4.0141 -5.056,6.4597 -7.6822,7.3355 -2.6263,0.8752 -5.1651,0.5863 -7.6046,-0.8607 -1.7546,-1.0401 -2.8937,-2.3427 -3.4075,-3.8968 -0.5187,-1.556 -0.3671,-3.3371 0.4559,-5.336 z m 15.4655,-3.4183 c 0.8416,-1.3549 1.173,-2.5985 1.0017,-3.7253 -0.1706,-1.1267 -0.6807,-1.9417 -1.521,-2.4401 -0.7953,-0.4719 -1.651,-0.5592 -2.5548,-0.2546 -0.9074,0.3015 -1.7995,1.1526 -2.6657,2.5473 -0.8815,1.4193 -1.2444,2.6328 -1.0842,3.6331 0.1601,1.0004 0.6739,1.7637 1.5309,2.2717 0.8243,0.4887 1.7243,0.5856 2.6829,0.2817 0.9635,-0.301 1.8359,-1.0769 2.6035,-2.3126 z"
       style="fill:#ffffff;fill-rule:evenodd"
       id="path369" />
    <path
       d="m 652.3611,511.5446 -4.2785,2.6015 -10.0356,-15.7558 c -0.6536,2.38 -1.8217,4.5613 -3.5109,6.5332 l -2.4156,-3.7921 c 0.8915,-1.0359 1.6732,-2.4558 2.3453,-4.2429 0.6734,-1.7937 0.8354,-3.5067 0.4744,-5.1325 l 3.4727,-2.1115 z m -4.8324,-21.5221 -2.4753,-3.8776 14.6351,-8.8981 1.9338,3.0367 c -0.4707,1.8894 -0.6346,4.3067 -0.5009,7.2344 0.1362,2.9325 0.6524,5.826 1.5562,8.6652 0.9031,2.8392 1.9707,5.2216 3.2047,7.1405 l -4.1251,2.5076 c -1.85,-3.0541 -3.169,-6.5193 -3.9637,-10.38 -0.7935,-3.8673 -0.9703,-7.648 -0.5342,-11.3401 z m 17.3457,-10.5468 -2.4747,-3.8769 14.6345,-8.8988 1.9338,3.0367 c -0.4707,1.89 -0.634,4.3067 -0.5009,7.235 0.1368,2.932 0.653,5.8254 1.5562,8.6646 0.9037,2.8393 1.9713,5.2216 3.2047,7.1405 l -4.1245,2.5082 c -1.85,-3.0547 -3.169,-6.5199 -3.9643,-10.3806 -0.7935,-3.8673 -0.9703,-7.648 -0.5335,-11.3401 z m 24.7513,-6.916 c -1.3941,0.2215 -2.601,0.0818 -3.6101,-0.4081 -1.0121,-0.4942 -1.8229,-1.2201 -2.4278,-2.1699 -1.0338,-1.6234 -1.3079,-3.3244 -0.8249,-5.0898 0.4836,-1.7654 1.8001,-3.3076 3.9397,-4.6083 2.1229,-1.2911 4.1097,-1.763 5.9566,-1.4139 1.8469,0.3485 3.2941,1.3417 4.3278,2.9644 0.6432,1.0101 0.9463,2.0773 0.913,3.1902 -0.037,1.1153 -0.4091,2.1819 -1.1163,3.1889 1.5432,-0.2684 2.9411,-0.13 4.1738,0.4112 1.2364,0.5387 2.2492,1.4223 3.0254,2.6418 1.2808,2.011 1.6689,4.0485 1.1582,6.1058 -0.5113,2.0574 -1.8648,3.7536 -4.0444,5.079 -2.0299,1.2339 -4.0567,1.7413 -6.0626,1.5222 -2.378,-0.257 -4.2526,-1.462 -5.6172,-3.6037 -0.751,-1.1797 -1.1422,-2.4467 -1.1705,-3.7968 -0.0277,-1.3507 0.4294,-2.6888 1.3775,-4.0064 z m -1.797,-4.7449 c 0.5292,0.8312 1.1841,1.3386 1.9572,1.5114 0.7799,0.1739 1.5728,0.0156 2.3755,-0.4719 0.8101,-0.493 1.311,-1.1268 1.5001,-1.89 0.1861,-0.7663 0.0142,-1.574 -0.515,-2.4047 -0.499,-0.7843 -1.1428,-1.2658 -1.9184,-1.4422 -0.7824,-0.1781 -1.574,-0.0265 -2.3681,0.4569 -0.8188,0.4972 -1.3239,1.134 -1.5075,1.9044 -0.1836,0.7711 -0.0271,1.5548 0.4719,2.3385 z m 5.5531,9.5837 c 0.7313,1.1484 1.6061,1.8683 2.6183,2.1428 1.0146,0.2781 1.9794,0.1421 2.8788,-0.4045 0.8834,-0.5375 1.4176,-1.2959 1.5993,-2.2632 0.1861,-0.9703 -0.0943,-2.0459 -0.8385,-3.2142 -0.6505,-1.0209 -1.4705,-1.6649 -2.4512,-1.9249 -0.9808,-0.2607 -1.9301,-0.1174 -2.8333,0.4321 -1.0454,0.6357 -1.603,1.4633 -1.667,2.4745 -0.0623,1.0148 0.1651,1.9364 0.6899,2.7598 z"
       style="fill:#ffffff;fill-rule:evenodd"
       id="path371" />
    <path
       d="m 312.4036,525.0046 4.6986,2.7207 c -1.4292,2.587 -3.2078,4.3501 -5.3307,5.2794 -2.1229,0.9348 -4.5816,1.0871 -7.3619,0.4599 -3.4431,-0.7765 -6.0035,-2.5642 -7.6723,-5.3565 -1.6726,-2.7977 -2.0398,-6.1919 -1.0991,-10.1724 0.9956,-4.214 2.8844,-7.2392 5.6597,-9.0672 2.7809,-1.828 5.9869,-2.3337 9.6142,-1.5162 3.1702,0.7156 5.5316,2.2114 7.0797,4.4872 0.9198,1.3501 1.4361,3.1077 1.5463,5.2626 l -5.465,0.0403 c 0.004,-1.379 -0.3949,-2.5629 -1.1847,-3.5399 -0.7898,-0.9763 -1.8851,-1.6251 -3.2731,-1.9381 -1.919,-0.4334 -3.6403,-0.1102 -5.1521,0.9624 -1.513,1.0775 -2.6324,3.1288 -3.3446,6.1438 -0.7559,3.1986 -0.7023,5.6165 0.1528,7.2374 0.8545,1.6264 2.232,2.6533 4.1134,3.0776 1.3929,0.3142 2.6941,0.1529 3.896,-0.4863 1.2056,-0.638 2.2511,-1.8352 3.1215,-3.5898 z m 18.648,-0.1914 c 0.4233,-2.6087 1.1798,-4.7455 2.2683,-6.3965 0.8077,-1.2123 1.8193,-2.2644 3.0169,-3.139 1.1982,-0.8794 2.4587,-1.4771 3.7696,-1.7853 1.7447,-0.4225 3.6933,-0.4701 5.8292,-0.139 3.867,0.5983 6.776,2.2517 8.7178,4.9549 1.9418,2.7075 2.5757,6.1528 1.8993,10.3271 -0.6715,4.1418 -2.3515,7.2055 -5.0332,9.1877 -2.6823,1.9827 -5.9573,2.6797 -9.815,2.0826 -3.9052,-0.6049 -6.8253,-2.2506 -8.7511,-4.9315 -1.9307,-2.6864 -2.564,-6.0752 -1.9018,-10.161 z m 5.4977,0.6694 c -0.4713,2.9072 -0.1472,5.221 0.9826,6.9334 1.1305,1.7125 2.7587,2.7339 4.8712,3.0602 2.1118,0.3274 3.9686,-0.1493 5.5636,-1.426 1.5956,-1.2814 2.6404,-3.4122 3.1222,-6.3845 0.4762,-2.9397 0.17,-5.2409 -0.9118,-6.8889 -1.0818,-1.6475 -2.7236,-2.6466 -4.9075,-2.9843 -2.1839,-0.3383 -4.0715,0.1192 -5.6437,1.3754 -1.5722,1.2562 -2.6035,3.3647 -3.0821,6.3183 z m 32.4206,17.0757 2.3133,-25.8872 11.2634,0.9631 c 2.8277,0.242 4.8699,0.6531 6.1076,1.2231 1.2376,0.5742 2.1925,1.4939 2.856,2.7441 0.6629,1.2544 0.9309,2.6503 0.7941,4.1779 -0.1743,1.9448 -0.905,3.502 -2.1821,4.6661 -1.282,1.1641 -3.1043,1.8129 -5.4558,1.9442 1.0948,0.756 1.9918,1.5619 2.6713,2.4155 0.6801,0.8535 1.5734,2.3456 2.6681,4.4662 l 2.7846,5.3227 -6.4008,-0.5471 -3.3625,-5.9596 c -1.1908,-2.1284 -2.0194,-3.4821 -2.4778,-4.0467 -0.4577,-0.57 -0.9641,-0.9781 -1.5093,-1.2183 -0.5501,-0.2413 -1.441,-0.4171 -2.6725,-0.5218 l -1.0818,-0.0927 -0.9678,10.8074 z m 6.6867,-14.4857 3.9569,0.3431 c 2.5641,0.2191 4.18,0.248 4.833,0.0957 0.6586,-0.1565 1.1964,-0.4797 1.5987,-0.9667 0.4066,-0.4857 0.6481,-1.1237 0.7171,-1.8984 0.0776,-0.8692 -0.0998,-1.5945 -0.5224,-2.1705 -0.4282,-0.5767 -1.0714,-0.9721 -1.9246,-1.1876 -0.4269,-0.0933 -1.7324,-0.2378 -3.8972,-0.4225 l -4.1744,-0.3576 z m 30.8891,-9.5085 5.3671,0.0964 -0.2514,14.0728 c -0.04,2.2307 0.002,3.6843 0.1251,4.347 0.2082,1.0648 0.743,1.9327 1.5956,2.5888 0.8526,0.6561 2.0342,1.0022 3.5306,1.0275 1.5204,0.0259 2.6749,-0.2612 3.4579,-0.8559 0.7831,-0.5959 1.2697,-1.3375 1.4398,-2.2169 0.17,-0.8842 0.2784,-2.3541 0.3154,-4.4102 l 0.2569,-14.3744 5.3671,0.0915 -0.2434,13.6485 c -0.056,3.1173 -0.2402,5.3215 -0.5526,6.5994 -0.3123,1.2827 -0.868,2.3631 -1.6609,3.2365 -0.7978,0.8734 -1.858,1.5632 -3.1702,2.0639 -1.3128,0.5014 -3.0261,0.7368 -5.1311,0.7007 -2.5388,-0.0434 -4.459,-0.3636 -5.7577,-0.9571 -1.3023,-0.5929 -2.3268,-1.3555 -3.0735,-2.2836 -0.746,-0.9282 -1.2309,-1.9033 -1.4545,-2.9073 -0.3204,-1.4964 -0.4602,-3.697 -0.4085,-6.6024 z m 36.6511,26.0799 -2.3225,-25.886 8.0075,-0.6844 6.3903,17.2473 3.1752,-18.0653 8.0217,-0.6856 2.3182,25.886 -4.9679,0.425 -1.8248,-20.3791 -3.4369,20.8287 -5.1503,0.4406 -7.0674,-19.9313 1.8254,20.3791 z m 36.8125,-29.1298 10.5007,-1.6203 c 2.0792,-0.3214 3.6421,-0.4779 4.69,-0.4677 1.0473,0.01 2.0207,0.2269 2.9133,0.638 0.8927,0.4111 1.6862,1.0239 2.3645,1.831 0.6789,0.812 1.1132,1.7715 1.2925,2.8802 0.1952,1.202 0.0406,2.3571 -0.4553,3.461 -0.5002,1.104 -1.2796,1.9984 -2.333,2.6774 1.6713,0.204 3.0273,0.7921 4.0629,1.7539 1.0368,0.9667 1.68,2.1898 1.9202,3.6717 0.1885,1.1647 0.0967,2.3487 -0.2778,3.5339 -0.3746,1.1852 -0.9943,2.1886 -1.8463,2.9939 -0.8557,0.8102 -1.977,1.4043 -3.3637,1.7715 -0.8668,0.2299 -2.9934,0.6205 -6.3663,1.1617 l -8.9452,1.3844 z m 5.9948,3.4514 0.9629,5.9397 3.4764,-0.5375 c 2.0644,-0.3196 3.3465,-0.5513 3.8381,-0.685 0.8896,-0.2425 1.5537,-0.6657 1.9874,-1.2483 0.438,-0.5881 0.5908,-1.2996 0.4565,-2.1284 -0.1282,-0.7921 -0.4572,-1.4049 -0.9808,-1.8304 -0.5286,-0.4244 -1.2444,-0.6236 -2.1482,-0.5893 -0.5341,0.0253 -2.0508,0.2269 -4.5446,0.6127 z m 1.6548,10.2073 1.1132,6.8673 4.9069,-0.759 c 1.9116,-0.2962 3.1184,-0.54 3.6119,-0.7217 0.7645,-0.2613 1.3529,-0.7013 1.7607,-1.3182 0.4084,-0.6176 0.5378,-1.3868 0.3906,-2.2957 -0.1245,-0.7687 -0.422,-1.3965 -0.8902,-1.8726 -0.4676,-0.4767 -1.0855,-0.7873 -1.8445,-0.9179 -0.7639,-0.1306 -2.3533,-0.0133 -4.7658,0.3599 z m 56.6137,0.7524 -5.6917,1.2839 -3.6212,-5.2391 -10.3627,2.3373 -0.7774,6.2316 -5.5507,1.252 4.1078,-27.5949 5.5365,-1.2489 z m -12.0007,-7.846 -5.7904,-8.5887 -1.2838,10.1892 z m -10.5346,-15.2688 1.2167,-5.711 5.5698,-1.2562 -3.6434,6.263 z"
       style="fill:#ffffff;fill-rule:evenodd"
       id="path373" />
    <path
       d="m 619.2665,183.3088 c 0,0 -14.6591,-1.276 -20.1968,-22.6621 -5.5378,-21.3861 -63.6171,-22.7067 -66.8749,-22.7067 -3.2577,0 53.8557,-16.5858 71.4466,-5.7333 17.5909,10.8526 12.6927,17.7018 40.0561,13.8718 22.9419,11.3335 13.682,31.485 3.9095,37.8689 -9.7726,6.384 -28.3405,-0.6386 -28.3405,-0.6386 z"
       style="fill:#9c9e9f;fill-rule:evenodd;stroke:#1b1918;stroke-width:3.1012;stroke-linecap:butt;stroke-linejoin:miter;stroke-dasharray:none"
       id="path375" />
  </g>
</svg>
